%TF.GenerationSoftware,KiCad,Pcbnew,(6.0.7)*%
%TF.CreationDate,2022-09-18T21:03:07-04:00*%
%TF.ProjectId,SD2IEC,53443249-4543-42e6-9b69-6361645f7063,A*%
%TF.SameCoordinates,Original*%
%TF.FileFunction,Soldermask,Bot*%
%TF.FilePolarity,Negative*%
%FSLAX46Y46*%
G04 Gerber Fmt 4.6, Leading zero omitted, Abs format (unit mm)*
G04 Created by KiCad (PCBNEW (6.0.7)) date 2022-09-18 21:03:07*
%MOMM*%
%LPD*%
G01*
G04 APERTURE LIST*
G04 Aperture macros list*
%AMRoundRect*
0 Rectangle with rounded corners*
0 $1 Rounding radius*
0 $2 $3 $4 $5 $6 $7 $8 $9 X,Y pos of 4 corners*
0 Add a 4 corners polygon primitive as box body*
4,1,4,$2,$3,$4,$5,$6,$7,$8,$9,$2,$3,0*
0 Add four circle primitives for the rounded corners*
1,1,$1+$1,$2,$3*
1,1,$1+$1,$4,$5*
1,1,$1+$1,$6,$7*
1,1,$1+$1,$8,$9*
0 Add four rect primitives between the rounded corners*
20,1,$1+$1,$2,$3,$4,$5,0*
20,1,$1+$1,$4,$5,$6,$7,0*
20,1,$1+$1,$6,$7,$8,$9,0*
20,1,$1+$1,$8,$9,$2,$3,0*%
G04 Aperture macros list end*
%ADD10C,3.800000*%
%ADD11C,0.990600*%
%ADD12C,1.500000*%
%ADD13R,1.600000X1.600000*%
%ADD14O,1.600000X1.600000*%
%ADD15C,2.600000*%
%ADD16C,2.100000*%
%ADD17C,1.750000*%
%ADD18RoundRect,0.750000X-3.000000X0.750000X-3.000000X-0.750000X3.000000X-0.750000X3.000000X0.750000X0*%
%ADD19RoundRect,0.250000X0.725000X-0.600000X0.725000X0.600000X-0.725000X0.600000X-0.725000X-0.600000X0*%
%ADD20O,1.950000X1.700000*%
%ADD21RoundRect,0.250000X0.450000X-0.350000X0.450000X0.350000X-0.450000X0.350000X-0.450000X-0.350000X0*%
%ADD22RoundRect,0.250000X-0.450000X0.350000X-0.450000X-0.350000X0.450000X-0.350000X0.450000X0.350000X0*%
%ADD23RoundRect,0.150000X0.150000X-0.587500X0.150000X0.587500X-0.150000X0.587500X-0.150000X-0.587500X0*%
%ADD24RoundRect,0.250000X0.537500X0.425000X-0.537500X0.425000X-0.537500X-0.425000X0.537500X-0.425000X0*%
%ADD25RoundRect,0.250400X0.149600X0.749600X-0.149600X0.749600X-0.149600X-0.749600X0.149600X-0.749600X0*%
%ADD26RoundRect,0.249900X0.100100X0.750100X-0.100100X0.750100X-0.100100X-0.750100X0.100100X-0.750100X0*%
%ADD27RoundRect,0.250200X0.649800X0.949800X-0.649800X0.949800X-0.649800X-0.949800X0.649800X-0.949800X0*%
%ADD28RoundRect,0.249900X0.600100X0.950100X-0.600100X0.950100X-0.600100X-0.950100X0.600100X-0.950100X0*%
G04 APERTURE END LIST*
D10*
X145320000Y-81160000D03*
X86320000Y-81160000D03*
X145320000Y-126160000D03*
X86320000Y-126160000D03*
D11*
X103759000Y-81200000D03*
X104775000Y-86280000D03*
X105791000Y-81200000D03*
D12*
X95820000Y-102660000D03*
X95820000Y-97780000D03*
D13*
X99017500Y-85015000D03*
D14*
X99017500Y-82475000D03*
X91397500Y-82475000D03*
X91397500Y-85015000D03*
D15*
X130720000Y-93422000D03*
X133320000Y-98422000D03*
X133320000Y-88422000D03*
X135820000Y-100922000D03*
X135820000Y-93422000D03*
X135820000Y-85922000D03*
X145320000Y-88422000D03*
X145320000Y-98422000D03*
X130720000Y-113660000D03*
X133320000Y-118660000D03*
X133320000Y-108660000D03*
X135820000Y-121160000D03*
X135820000Y-113660000D03*
X135820000Y-106160000D03*
X145320000Y-118660000D03*
X145320000Y-108660000D03*
D16*
X109570000Y-84150000D03*
X116580000Y-84150000D03*
D17*
X110820000Y-81660000D03*
X115320000Y-81660000D03*
D16*
X119570000Y-84150000D03*
X126580000Y-84150000D03*
D17*
X120820000Y-81660000D03*
X125320000Y-81660000D03*
D18*
X88108000Y-113560000D03*
X88108000Y-109600000D03*
X88108000Y-105640000D03*
X88108000Y-101680000D03*
X88108000Y-97720000D03*
X88108000Y-93760000D03*
D19*
X140820000Y-118660000D03*
D20*
X140820000Y-116160000D03*
X140820000Y-113660000D03*
X140820000Y-111160000D03*
X140820000Y-108660000D03*
X140820000Y-106160000D03*
D19*
X140820000Y-98660000D03*
D20*
X140820000Y-96160000D03*
X140820000Y-93660000D03*
X140820000Y-91160000D03*
X140820000Y-88660000D03*
X140820000Y-86160000D03*
D21*
X127127000Y-97440000D03*
X127127000Y-95440000D03*
X125095000Y-95440000D03*
X125095000Y-97440000D03*
D22*
X127127000Y-91376000D03*
X127127000Y-93376000D03*
D21*
X125095000Y-93376000D03*
X125095000Y-91376000D03*
X120904000Y-95440000D03*
X120904000Y-97440000D03*
X118872000Y-97440000D03*
X118872000Y-95440000D03*
D22*
X120904000Y-91376000D03*
X120904000Y-93376000D03*
D21*
X118872000Y-93376000D03*
X118872000Y-91376000D03*
X114427000Y-95440000D03*
X114427000Y-97440000D03*
X112354001Y-95440000D03*
X112354001Y-97440000D03*
D22*
X114386001Y-91376000D03*
X114386001Y-93376000D03*
D21*
X112354001Y-91376000D03*
X112354001Y-93376000D03*
D23*
X127061000Y-89249500D03*
X125161000Y-89249500D03*
X126111000Y-87374500D03*
X120838000Y-89249500D03*
X118938000Y-89249500D03*
X119888000Y-87374500D03*
X114320001Y-89249500D03*
X112420001Y-89249500D03*
X113370001Y-87374500D03*
D24*
X114257500Y-100660000D03*
X111382500Y-100660000D03*
D12*
X125920000Y-110952000D03*
X101720000Y-110952000D03*
D25*
X106940000Y-103752000D03*
X109440000Y-103752000D03*
X112740000Y-103752000D03*
X114440000Y-103752000D03*
X116940000Y-103752000D03*
X119440000Y-103752000D03*
X121870000Y-103752000D03*
X123570000Y-103752000D03*
X104440000Y-103752000D03*
X111140000Y-103752000D03*
D26*
X127060000Y-103752000D03*
D27*
X100620000Y-124952000D03*
D28*
X127070000Y-126152000D03*
M02*
