M48
; DRILL file {KiCad (6.0.7)} date Sun Sep 18 21:03:05 2022
; FORMAT={-:-/ absolute / metric / decimal}
; #@! TF.CreationDate,2022-09-18T21:03:05-04:00
; #@! TF.GenerationSoftware,Kicad,Pcbnew,(6.0.7)
; #@! TF.FileFunction,Plated,1,2,PTH
FMAT,2
METRIC
; #@! TA.AperFunction,Plated,PTH,ViaDrill
T1C0.400
; #@! TA.AperFunction,Plated,PTH,ViaDrill
T2C0.700
; #@! TA.AperFunction,Plated,PTH,ComponentDrill
T3C0.800
; #@! TA.AperFunction,Plated,PTH,ComponentDrill
T4C0.950
; #@! TA.AperFunction,Plated,PTH,ComponentDrill
T5C0.990
; #@! TA.AperFunction,Plated,PTH,ComponentDrill
T6C1.300
; #@! TA.AperFunction,Plated,PTH,ComponentDrill
T7C1.600
; #@! TA.AperFunction,Plated,PTH,ComponentDrill
T8C2.200
%
G90
G05
T1
X91.948Y-92.122
X91.948Y-95.932
X91.948Y-99.996
X91.948Y-103.806
X93.98Y-114.728
X93.98Y-120.189
X96.774Y-115.236
X97.79Y-98.472
X97.79Y-101.012
X97.79Y-103.044
X99.695Y-96.28
X102.616Y-115.236
X102.616Y-122.856
X102.87Y-86.534
X104.775Y-91.36
X106.045Y-90.09
X106.164Y-109.649
X106.426Y-94.662
X107.311Y-105.584
X107.315Y-81.2
X107.315Y-90.09
X107.95Y-107.616
X108.204Y-96.694
X108.204Y-103.552
X109.22Y-91.36
X109.22Y-93.159
X109.22Y-108.886
X110.236Y-102.028
X110.49Y-97.71
X110.49Y-99.615
X111.468Y-90.344
X113.284Y-98.763
X115.824Y-96.44
X115.824Y-103.806
X115.878Y-90.323
X116.078Y-97.964
X116.205Y-87.55
X117.475Y-87.55
X117.657Y-94.662
X117.856Y-90.09
X117.896Y-92.393
X118.237Y-109.775
X118.745Y-87.55
X120.65Y-103.806
X121.92Y-87.55
X122.174Y-96.44
X123.19Y-87.55
X123.698Y-91.868
X123.698Y-93.392
X123.698Y-94.662
X123.698Y-97.202
X123.952Y-100.504
X124.46Y-87.55
X127.127Y-124.126
X128.052Y-96.386
T2
X93.726Y-109.394
X115.57Y-102.028
X117.856Y-107.87
T3
X91.397Y-82.475
X91.397Y-85.015
X95.82Y-97.78
X95.82Y-102.66
X99.017Y-82.475
X99.017Y-85.015
T4
X140.82Y-86.16
X140.82Y-88.66
X140.82Y-91.16
X140.82Y-93.66
X140.82Y-96.16
X140.82Y-98.66
X140.82Y-106.16
X140.82Y-108.66
X140.82Y-111.16
X140.82Y-113.66
X140.82Y-116.16
X140.82Y-118.66
T5
X110.82Y-81.66
X115.32Y-81.66
X120.82Y-81.66
X125.32Y-81.66
T6
X109.57Y-84.15
X116.58Y-84.15
X119.57Y-84.15
X126.58Y-84.15
T7
X130.72Y-93.422
X130.72Y-113.66
X133.32Y-88.422
X133.32Y-98.422
X133.32Y-108.66
X133.32Y-118.66
X135.82Y-85.922
X135.82Y-93.422
X135.82Y-100.922
X135.82Y-106.16
X135.82Y-113.66
X135.82Y-121.16
X145.32Y-88.422
X145.32Y-98.422
X145.32Y-108.66
X145.32Y-118.66
T8
X86.32Y-81.16
X86.32Y-126.16
X145.32Y-81.16
X145.32Y-126.16
T0
M30
