%TF.GenerationSoftware,KiCad,Pcbnew,(6.0.7)*%
%TF.CreationDate,2022-09-18T21:03:04-04:00*%
%TF.ProjectId,SD2IEC,53443249-4543-42e6-9b69-6361645f7063,A*%
%TF.SameCoordinates,Original*%
%TF.FileFunction,Drillmap*%
%TF.FilePolarity,Positive*%
%FSLAX45Y45*%
G04 Gerber Fmt 4.5, Leading zero omitted, Abs format (unit mm)*
G04 Created by KiCad (PCBNEW (6.0.7)) date 2022-09-18 21:03:04*
%MOMM*%
%LPD*%
G01*
G04 APERTURE LIST*
%ADD10C,0.150000*%
%ADD11C,0.200000*%
%ADD12C,0.040000*%
%ADD13C,0.070000*%
%ADD14C,0.080000*%
%ADD15C,0.095000*%
%ADD16C,0.099000*%
%ADD17C,0.130000*%
%ADD18C,0.160000*%
%ADD19C,0.220000*%
G04 APERTURE END LIST*
D10*
X8382000Y-12616000D02*
G75*
G03*
X8632000Y-12866000I250000J0D01*
G01*
X8632000Y-7866000D02*
G75*
G03*
X8382000Y-8116000I0J-250000D01*
G01*
X14782000Y-8116000D02*
G75*
G03*
X14532000Y-7866000I-250000J0D01*
G01*
X14532000Y-12866000D02*
G75*
G03*
X14782000Y-12616000I0J250000D01*
G01*
X8382000Y-12616000D02*
X8382000Y-8116000D01*
X8632000Y-12866000D02*
X14532000Y-12866000D01*
X14782000Y-8116000D02*
X14782000Y-12616000D01*
X8632000Y-7866000D02*
X14532000Y-7866000D01*
D11*
D12*
X9174800Y-9192200D02*
X9214800Y-9232200D01*
X9214800Y-9192200D02*
X9174800Y-9232200D01*
X9174800Y-9573200D02*
X9214800Y-9613200D01*
X9214800Y-9573200D02*
X9174800Y-9613200D01*
X9174800Y-9979600D02*
X9214800Y-10019600D01*
X9214800Y-9979600D02*
X9174800Y-10019600D01*
X9174800Y-10360600D02*
X9214800Y-10400600D01*
X9214800Y-10360600D02*
X9174800Y-10400600D01*
X9378000Y-11452800D02*
X9418000Y-11492800D01*
X9418000Y-11452800D02*
X9378000Y-11492800D01*
X9378000Y-11998900D02*
X9418000Y-12038900D01*
X9418000Y-11998900D02*
X9378000Y-12038900D01*
X9657400Y-11503600D02*
X9697400Y-11543600D01*
X9697400Y-11503600D02*
X9657400Y-11543600D01*
X9759000Y-9827200D02*
X9799000Y-9867200D01*
X9799000Y-9827200D02*
X9759000Y-9867200D01*
X9759000Y-10081200D02*
X9799000Y-10121200D01*
X9799000Y-10081200D02*
X9759000Y-10121200D01*
X9759000Y-10284400D02*
X9799000Y-10324400D01*
X9799000Y-10284400D02*
X9759000Y-10324400D01*
X9949500Y-9608050D02*
X9989500Y-9648050D01*
X9989500Y-9608050D02*
X9949500Y-9648050D01*
X10241600Y-11503600D02*
X10281600Y-11543600D01*
X10281600Y-11503600D02*
X10241600Y-11543600D01*
X10241600Y-12265600D02*
X10281600Y-12305600D01*
X10281600Y-12265600D02*
X10241600Y-12305600D01*
X10267000Y-8633400D02*
X10307000Y-8673400D01*
X10307000Y-8633400D02*
X10267000Y-8673400D01*
X10457500Y-9116000D02*
X10497500Y-9156000D01*
X10497500Y-9116000D02*
X10457500Y-9156000D01*
X10584500Y-8989000D02*
X10624500Y-9029000D01*
X10624500Y-8989000D02*
X10584500Y-9029000D01*
X10596431Y-10944891D02*
X10636431Y-10984891D01*
X10636431Y-10944891D02*
X10596431Y-10984891D01*
X10622600Y-9446200D02*
X10662600Y-9486200D01*
X10662600Y-9446200D02*
X10622600Y-9486200D01*
X10711150Y-10538400D02*
X10751150Y-10578400D01*
X10751150Y-10538400D02*
X10711150Y-10578400D01*
X10711500Y-8100000D02*
X10751500Y-8140000D01*
X10751500Y-8100000D02*
X10711500Y-8140000D01*
X10711500Y-8989000D02*
X10751500Y-9029000D01*
X10751500Y-8989000D02*
X10711500Y-9029000D01*
X10775000Y-10741600D02*
X10815000Y-10781600D01*
X10815000Y-10741600D02*
X10775000Y-10781600D01*
X10800400Y-9649400D02*
X10840400Y-9689400D01*
X10840400Y-9649400D02*
X10800400Y-9689400D01*
X10800400Y-10335200D02*
X10840400Y-10375200D01*
X10840400Y-10335200D02*
X10800400Y-10375200D01*
X10902000Y-9116000D02*
X10942000Y-9156000D01*
X10942000Y-9116000D02*
X10902000Y-9156000D01*
X10902000Y-9295950D02*
X10942000Y-9335950D01*
X10942000Y-9295950D02*
X10902000Y-9335950D01*
X10902000Y-10868600D02*
X10942000Y-10908600D01*
X10942000Y-10868600D02*
X10902000Y-10908600D01*
X11003600Y-10182800D02*
X11043600Y-10222800D01*
X11043600Y-10182800D02*
X11003600Y-10222800D01*
X11029000Y-9751000D02*
X11069000Y-9791000D01*
X11069000Y-9751000D02*
X11029000Y-9791000D01*
X11029000Y-9941500D02*
X11069000Y-9981500D01*
X11069000Y-9941500D02*
X11029000Y-9981500D01*
X11126850Y-9014400D02*
X11166850Y-9054400D01*
X11166850Y-9014400D02*
X11126850Y-9054400D01*
X11308400Y-9856350D02*
X11348400Y-9896350D01*
X11348400Y-9856350D02*
X11308400Y-9896350D01*
X11562400Y-9624000D02*
X11602400Y-9664000D01*
X11602400Y-9624000D02*
X11562400Y-9664000D01*
X11562400Y-10360600D02*
X11602400Y-10400600D01*
X11602400Y-10360600D02*
X11562400Y-10400600D01*
X11567793Y-9012281D02*
X11607793Y-9052281D01*
X11607793Y-9012281D02*
X11567793Y-9052281D01*
X11587800Y-9776400D02*
X11627800Y-9816400D01*
X11627800Y-9776400D02*
X11587800Y-9816400D01*
X11600500Y-8735000D02*
X11640500Y-8775000D01*
X11640500Y-8735000D02*
X11600500Y-8775000D01*
X11727500Y-8735000D02*
X11767500Y-8775000D01*
X11767500Y-8735000D02*
X11727500Y-8775000D01*
X11745700Y-9446200D02*
X11785700Y-9486200D01*
X11785700Y-9446200D02*
X11745700Y-9486200D01*
X11765600Y-8989000D02*
X11805600Y-9029000D01*
X11805600Y-8989000D02*
X11765600Y-9029000D01*
X11769627Y-9219328D02*
X11809627Y-9259328D01*
X11809627Y-9219328D02*
X11769627Y-9259328D01*
X11803700Y-10957500D02*
X11843700Y-10997500D01*
X11843700Y-10957500D02*
X11803700Y-10997500D01*
X11854500Y-8735000D02*
X11894500Y-8775000D01*
X11894500Y-8735000D02*
X11854500Y-8775000D01*
X12045000Y-10360600D02*
X12085000Y-10400600D01*
X12085000Y-10360600D02*
X12045000Y-10400600D01*
X12172000Y-8735000D02*
X12212000Y-8775000D01*
X12212000Y-8735000D02*
X12172000Y-8775000D01*
X12197400Y-9624000D02*
X12237400Y-9664000D01*
X12237400Y-9624000D02*
X12197400Y-9664000D01*
X12299000Y-8735000D02*
X12339000Y-8775000D01*
X12339000Y-8735000D02*
X12299000Y-8775000D01*
X12349800Y-9166800D02*
X12389800Y-9206800D01*
X12389800Y-9166800D02*
X12349800Y-9206800D01*
X12349800Y-9319200D02*
X12389800Y-9359200D01*
X12389800Y-9319200D02*
X12349800Y-9359200D01*
X12349800Y-9446200D02*
X12389800Y-9486200D01*
X12389800Y-9446200D02*
X12349800Y-9486200D01*
X12349800Y-9700200D02*
X12389800Y-9740200D01*
X12389800Y-9700200D02*
X12349800Y-9740200D01*
X12375200Y-10030400D02*
X12415200Y-10070400D01*
X12415200Y-10030400D02*
X12375200Y-10070400D01*
X12426000Y-8735000D02*
X12466000Y-8775000D01*
X12466000Y-8735000D02*
X12426000Y-8775000D01*
X12692700Y-12392600D02*
X12732700Y-12432600D01*
X12732700Y-12392600D02*
X12692700Y-12432600D01*
X12785246Y-9618602D02*
X12825246Y-9658602D01*
X12825246Y-9618602D02*
X12785246Y-9658602D01*
D13*
X9407600Y-10939400D02*
G75*
G03*
X9407600Y-10939400I-35000J0D01*
G01*
X11592000Y-10202800D02*
G75*
G03*
X11592000Y-10202800I-35000J0D01*
G01*
X11820600Y-10787000D02*
G75*
G03*
X11820600Y-10787000I-35000J0D01*
G01*
D14*
X9139750Y-8207500D02*
X9139750Y-8287500D01*
X9099750Y-8247500D02*
X9179750Y-8247500D01*
X9139750Y-8461500D02*
X9139750Y-8541500D01*
X9099750Y-8501500D02*
X9179750Y-8501500D01*
X9582000Y-9738000D02*
X9582000Y-9818000D01*
X9542000Y-9778000D02*
X9622000Y-9778000D01*
X9582000Y-10226000D02*
X9582000Y-10306000D01*
X9542000Y-10266000D02*
X9622000Y-10266000D01*
X9901750Y-8207500D02*
X9901750Y-8287500D01*
X9861750Y-8247500D02*
X9941750Y-8247500D01*
X9901750Y-8461500D02*
X9901750Y-8541500D01*
X9861750Y-8501500D02*
X9941750Y-8501500D01*
D15*
X14115588Y-8649588D02*
X14115588Y-8582412D01*
X14048412Y-8582412D01*
X14048412Y-8649588D01*
X14115588Y-8649588D01*
X14115588Y-8899588D02*
X14115588Y-8832412D01*
X14048412Y-8832412D01*
X14048412Y-8899588D01*
X14115588Y-8899588D01*
X14115588Y-9149588D02*
X14115588Y-9082412D01*
X14048412Y-9082412D01*
X14048412Y-9149588D01*
X14115588Y-9149588D01*
X14115588Y-9399588D02*
X14115588Y-9332412D01*
X14048412Y-9332412D01*
X14048412Y-9399588D01*
X14115588Y-9399588D01*
X14115588Y-9649588D02*
X14115588Y-9582412D01*
X14048412Y-9582412D01*
X14048412Y-9649588D01*
X14115588Y-9649588D01*
X14115588Y-9899588D02*
X14115588Y-9832412D01*
X14048412Y-9832412D01*
X14048412Y-9899588D01*
X14115588Y-9899588D01*
X14115588Y-10649588D02*
X14115588Y-10582412D01*
X14048412Y-10582412D01*
X14048412Y-10649588D01*
X14115588Y-10649588D01*
X14115588Y-10899588D02*
X14115588Y-10832412D01*
X14048412Y-10832412D01*
X14048412Y-10899588D01*
X14115588Y-10899588D01*
X14115588Y-11149588D02*
X14115588Y-11082412D01*
X14048412Y-11082412D01*
X14048412Y-11149588D01*
X14115588Y-11149588D01*
X14115588Y-11399588D02*
X14115588Y-11332412D01*
X14048412Y-11332412D01*
X14048412Y-11399588D01*
X14115588Y-11399588D01*
X14115588Y-11649588D02*
X14115588Y-11582412D01*
X14048412Y-11582412D01*
X14048412Y-11649588D01*
X14115588Y-11649588D01*
X14115588Y-11899588D02*
X14115588Y-11832412D01*
X14048412Y-11832412D01*
X14048412Y-11899588D01*
X14115588Y-11899588D01*
D16*
X11082000Y-8215500D02*
X11131500Y-8166000D01*
X11082000Y-8116500D01*
X11032500Y-8166000D01*
X11082000Y-8215500D01*
X11532000Y-8215500D02*
X11581500Y-8166000D01*
X11532000Y-8116500D01*
X11482500Y-8166000D01*
X11532000Y-8215500D01*
X12082000Y-8215500D02*
X12131500Y-8166000D01*
X12082000Y-8116500D01*
X12032500Y-8166000D01*
X12082000Y-8215500D01*
X12532000Y-8215500D02*
X12581500Y-8166000D01*
X12532000Y-8116500D01*
X12482500Y-8166000D01*
X12532000Y-8215500D01*
D17*
X10892000Y-8350000D02*
X11022000Y-8480000D01*
X11022000Y-8350000D02*
X10892000Y-8480000D01*
X11022000Y-8415000D02*
G75*
G03*
X11022000Y-8415000I-65000J0D01*
G01*
X11593000Y-8350000D02*
X11723000Y-8480000D01*
X11723000Y-8350000D02*
X11593000Y-8480000D01*
X11723000Y-8415000D02*
G75*
G03*
X11723000Y-8415000I-65000J0D01*
G01*
X11892000Y-8350000D02*
X12022000Y-8480000D01*
X12022000Y-8350000D02*
X11892000Y-8480000D01*
X12022000Y-8415000D02*
G75*
G03*
X12022000Y-8415000I-65000J0D01*
G01*
X12593000Y-8350000D02*
X12723000Y-8480000D01*
X12723000Y-8350000D02*
X12593000Y-8480000D01*
X12723000Y-8415000D02*
G75*
G03*
X12723000Y-8415000I-65000J0D01*
G01*
D18*
X12992000Y-9262200D02*
X13152000Y-9422200D01*
X13152000Y-9262200D02*
X12992000Y-9422200D01*
X13072000Y-9262200D02*
X13072000Y-9422200D01*
X12992000Y-9342200D02*
X13152000Y-9342200D01*
X12992000Y-11286000D02*
X13152000Y-11446000D01*
X13152000Y-11286000D02*
X12992000Y-11446000D01*
X13072000Y-11286000D02*
X13072000Y-11446000D01*
X12992000Y-11366000D02*
X13152000Y-11366000D01*
X13252000Y-8762200D02*
X13412000Y-8922200D01*
X13412000Y-8762200D02*
X13252000Y-8922200D01*
X13332000Y-8762200D02*
X13332000Y-8922200D01*
X13252000Y-8842200D02*
X13412000Y-8842200D01*
X13252000Y-9762200D02*
X13412000Y-9922200D01*
X13412000Y-9762200D02*
X13252000Y-9922200D01*
X13332000Y-9762200D02*
X13332000Y-9922200D01*
X13252000Y-9842200D02*
X13412000Y-9842200D01*
X13252000Y-10786000D02*
X13412000Y-10946000D01*
X13412000Y-10786000D02*
X13252000Y-10946000D01*
X13332000Y-10786000D02*
X13332000Y-10946000D01*
X13252000Y-10866000D02*
X13412000Y-10866000D01*
X13252000Y-11786000D02*
X13412000Y-11946000D01*
X13412000Y-11786000D02*
X13252000Y-11946000D01*
X13332000Y-11786000D02*
X13332000Y-11946000D01*
X13252000Y-11866000D02*
X13412000Y-11866000D01*
X13502000Y-8512200D02*
X13662000Y-8672200D01*
X13662000Y-8512200D02*
X13502000Y-8672200D01*
X13582000Y-8512200D02*
X13582000Y-8672200D01*
X13502000Y-8592200D02*
X13662000Y-8592200D01*
X13502000Y-9262200D02*
X13662000Y-9422200D01*
X13662000Y-9262200D02*
X13502000Y-9422200D01*
X13582000Y-9262200D02*
X13582000Y-9422200D01*
X13502000Y-9342200D02*
X13662000Y-9342200D01*
X13502000Y-10012200D02*
X13662000Y-10172200D01*
X13662000Y-10012200D02*
X13502000Y-10172200D01*
X13582000Y-10012200D02*
X13582000Y-10172200D01*
X13502000Y-10092200D02*
X13662000Y-10092200D01*
X13502000Y-10536000D02*
X13662000Y-10696000D01*
X13662000Y-10536000D02*
X13502000Y-10696000D01*
X13582000Y-10536000D02*
X13582000Y-10696000D01*
X13502000Y-10616000D02*
X13662000Y-10616000D01*
X13502000Y-11286000D02*
X13662000Y-11446000D01*
X13662000Y-11286000D02*
X13502000Y-11446000D01*
X13582000Y-11286000D02*
X13582000Y-11446000D01*
X13502000Y-11366000D02*
X13662000Y-11366000D01*
X13502000Y-12036000D02*
X13662000Y-12196000D01*
X13662000Y-12036000D02*
X13502000Y-12196000D01*
X13582000Y-12036000D02*
X13582000Y-12196000D01*
X13502000Y-12116000D02*
X13662000Y-12116000D01*
X14452000Y-8762200D02*
X14612000Y-8922200D01*
X14612000Y-8762200D02*
X14452000Y-8922200D01*
X14532000Y-8762200D02*
X14532000Y-8922200D01*
X14452000Y-8842200D02*
X14612000Y-8842200D01*
X14452000Y-9762200D02*
X14612000Y-9922200D01*
X14612000Y-9762200D02*
X14452000Y-9922200D01*
X14532000Y-9762200D02*
X14532000Y-9922200D01*
X14452000Y-9842200D02*
X14612000Y-9842200D01*
X14452000Y-10786000D02*
X14612000Y-10946000D01*
X14612000Y-10786000D02*
X14452000Y-10946000D01*
X14532000Y-10786000D02*
X14532000Y-10946000D01*
X14452000Y-10866000D02*
X14612000Y-10866000D01*
X14452000Y-11786000D02*
X14612000Y-11946000D01*
X14612000Y-11786000D02*
X14452000Y-11946000D01*
X14532000Y-11786000D02*
X14532000Y-11946000D01*
X14452000Y-11866000D02*
X14612000Y-11866000D01*
D19*
X8522000Y-8006000D02*
X8742000Y-8226000D01*
X8742000Y-8006000D02*
X8522000Y-8226000D01*
X8709783Y-8193782D02*
X8709783Y-8038217D01*
X8554218Y-8038217D01*
X8554218Y-8193782D01*
X8709783Y-8193782D01*
X8522000Y-12506000D02*
X8742000Y-12726000D01*
X8742000Y-12506000D02*
X8522000Y-12726000D01*
X8709783Y-12693782D02*
X8709783Y-12538217D01*
X8554218Y-12538217D01*
X8554218Y-12693782D01*
X8709783Y-12693782D01*
X14422000Y-8006000D02*
X14642000Y-8226000D01*
X14642000Y-8006000D02*
X14422000Y-8226000D01*
X14609782Y-8193782D02*
X14609782Y-8038217D01*
X14454217Y-8038217D01*
X14454217Y-8193782D01*
X14609782Y-8193782D01*
X14422000Y-12506000D02*
X14642000Y-12726000D01*
X14642000Y-12506000D02*
X14422000Y-12726000D01*
X14609782Y-12693782D02*
X14609782Y-12538217D01*
X14454217Y-12538217D01*
X14454217Y-12693782D01*
X14609782Y-12693782D01*
D11*
X8632119Y-13183976D02*
X8632119Y-12983976D01*
X8679738Y-12983976D01*
X8708310Y-12993500D01*
X8727357Y-13012548D01*
X8736881Y-13031595D01*
X8746405Y-13069690D01*
X8746405Y-13098262D01*
X8736881Y-13136357D01*
X8727357Y-13155405D01*
X8708310Y-13174452D01*
X8679738Y-13183976D01*
X8632119Y-13183976D01*
X8832119Y-13183976D02*
X8832119Y-13050643D01*
X8832119Y-13088738D02*
X8841643Y-13069690D01*
X8851167Y-13060167D01*
X8870214Y-13050643D01*
X8889262Y-13050643D01*
X8955929Y-13183976D02*
X8955929Y-13050643D01*
X8955929Y-12983976D02*
X8946405Y-12993500D01*
X8955929Y-13003024D01*
X8965452Y-12993500D01*
X8955929Y-12983976D01*
X8955929Y-13003024D01*
X9079738Y-13183976D02*
X9060690Y-13174452D01*
X9051167Y-13155405D01*
X9051167Y-12983976D01*
X9184500Y-13183976D02*
X9165452Y-13174452D01*
X9155929Y-13155405D01*
X9155929Y-12983976D01*
X9413071Y-13183976D02*
X9413071Y-12983976D01*
X9479738Y-13126833D01*
X9546405Y-12983976D01*
X9546405Y-13183976D01*
X9727357Y-13183976D02*
X9727357Y-13079214D01*
X9717833Y-13060167D01*
X9698786Y-13050643D01*
X9660690Y-13050643D01*
X9641643Y-13060167D01*
X9727357Y-13174452D02*
X9708310Y-13183976D01*
X9660690Y-13183976D01*
X9641643Y-13174452D01*
X9632119Y-13155405D01*
X9632119Y-13136357D01*
X9641643Y-13117309D01*
X9660690Y-13107786D01*
X9708310Y-13107786D01*
X9727357Y-13098262D01*
X9822595Y-13050643D02*
X9822595Y-13250643D01*
X9822595Y-13060167D02*
X9841643Y-13050643D01*
X9879738Y-13050643D01*
X9898786Y-13060167D01*
X9908310Y-13069690D01*
X9917833Y-13088738D01*
X9917833Y-13145881D01*
X9908310Y-13164928D01*
X9898786Y-13174452D01*
X9879738Y-13183976D01*
X9841643Y-13183976D01*
X9822595Y-13174452D01*
X10003548Y-13164928D02*
X10013071Y-13174452D01*
X10003548Y-13183976D01*
X9994024Y-13174452D01*
X10003548Y-13164928D01*
X10003548Y-13183976D01*
X10003548Y-13060167D02*
X10013071Y-13069690D01*
X10003548Y-13079214D01*
X9994024Y-13069690D01*
X10003548Y-13060167D01*
X10003548Y-13079214D01*
D12*
X8334500Y-13493500D02*
X8374500Y-13533500D01*
X8374500Y-13493500D02*
X8334500Y-13533500D01*
D11*
X8670214Y-13403976D02*
X8689262Y-13403976D01*
X8708310Y-13413500D01*
X8717833Y-13423024D01*
X8727357Y-13442071D01*
X8736881Y-13480167D01*
X8736881Y-13527786D01*
X8727357Y-13565881D01*
X8717833Y-13584928D01*
X8708310Y-13594452D01*
X8689262Y-13603976D01*
X8670214Y-13603976D01*
X8651167Y-13594452D01*
X8641643Y-13584928D01*
X8632119Y-13565881D01*
X8622595Y-13527786D01*
X8622595Y-13480167D01*
X8632119Y-13442071D01*
X8641643Y-13423024D01*
X8651167Y-13413500D01*
X8670214Y-13403976D01*
X8822595Y-13584928D02*
X8832119Y-13594452D01*
X8822595Y-13603976D01*
X8813071Y-13594452D01*
X8822595Y-13584928D01*
X8822595Y-13603976D01*
X9003548Y-13470643D02*
X9003548Y-13603976D01*
X8955929Y-13394452D02*
X8908310Y-13537309D01*
X9032119Y-13537309D01*
X9146405Y-13403976D02*
X9165452Y-13403976D01*
X9184500Y-13413500D01*
X9194024Y-13423024D01*
X9203548Y-13442071D01*
X9213071Y-13480167D01*
X9213071Y-13527786D01*
X9203548Y-13565881D01*
X9194024Y-13584928D01*
X9184500Y-13594452D01*
X9165452Y-13603976D01*
X9146405Y-13603976D01*
X9127357Y-13594452D01*
X9117833Y-13584928D01*
X9108310Y-13565881D01*
X9098786Y-13527786D01*
X9098786Y-13480167D01*
X9108310Y-13442071D01*
X9117833Y-13423024D01*
X9127357Y-13413500D01*
X9146405Y-13403976D01*
X9336881Y-13403976D02*
X9355929Y-13403976D01*
X9374976Y-13413500D01*
X9384500Y-13423024D01*
X9394024Y-13442071D01*
X9403548Y-13480167D01*
X9403548Y-13527786D01*
X9394024Y-13565881D01*
X9384500Y-13584928D01*
X9374976Y-13594452D01*
X9355929Y-13603976D01*
X9336881Y-13603976D01*
X9317833Y-13594452D01*
X9308310Y-13584928D01*
X9298786Y-13565881D01*
X9289262Y-13527786D01*
X9289262Y-13480167D01*
X9298786Y-13442071D01*
X9308310Y-13423024D01*
X9317833Y-13413500D01*
X9336881Y-13403976D01*
X9489262Y-13603976D02*
X9489262Y-13470643D01*
X9489262Y-13489690D02*
X9498786Y-13480167D01*
X9517833Y-13470643D01*
X9546405Y-13470643D01*
X9565452Y-13480167D01*
X9574976Y-13499214D01*
X9574976Y-13603976D01*
X9574976Y-13499214D02*
X9584500Y-13480167D01*
X9603548Y-13470643D01*
X9632119Y-13470643D01*
X9651167Y-13480167D01*
X9660690Y-13499214D01*
X9660690Y-13603976D01*
X9755929Y-13603976D02*
X9755929Y-13470643D01*
X9755929Y-13489690D02*
X9765452Y-13480167D01*
X9784500Y-13470643D01*
X9813071Y-13470643D01*
X9832119Y-13480167D01*
X9841643Y-13499214D01*
X9841643Y-13603976D01*
X9841643Y-13499214D02*
X9851167Y-13480167D01*
X9870214Y-13470643D01*
X9898786Y-13470643D01*
X9917833Y-13480167D01*
X9927357Y-13499214D01*
X9927357Y-13603976D01*
X10317833Y-13394452D02*
X10146405Y-13651595D01*
X10574976Y-13403976D02*
X10594024Y-13403976D01*
X10613071Y-13413500D01*
X10622595Y-13423024D01*
X10632119Y-13442071D01*
X10641643Y-13480167D01*
X10641643Y-13527786D01*
X10632119Y-13565881D01*
X10622595Y-13584928D01*
X10613071Y-13594452D01*
X10594024Y-13603976D01*
X10574976Y-13603976D01*
X10555929Y-13594452D01*
X10546405Y-13584928D01*
X10536881Y-13565881D01*
X10527357Y-13527786D01*
X10527357Y-13480167D01*
X10536881Y-13442071D01*
X10546405Y-13423024D01*
X10555929Y-13413500D01*
X10574976Y-13403976D01*
X10727357Y-13584928D02*
X10736881Y-13594452D01*
X10727357Y-13603976D01*
X10717833Y-13594452D01*
X10727357Y-13584928D01*
X10727357Y-13603976D01*
X10860690Y-13403976D02*
X10879738Y-13403976D01*
X10898786Y-13413500D01*
X10908310Y-13423024D01*
X10917833Y-13442071D01*
X10927357Y-13480167D01*
X10927357Y-13527786D01*
X10917833Y-13565881D01*
X10908310Y-13584928D01*
X10898786Y-13594452D01*
X10879738Y-13603976D01*
X10860690Y-13603976D01*
X10841643Y-13594452D01*
X10832119Y-13584928D01*
X10822595Y-13565881D01*
X10813071Y-13527786D01*
X10813071Y-13480167D01*
X10822595Y-13442071D01*
X10832119Y-13423024D01*
X10841643Y-13413500D01*
X10860690Y-13403976D01*
X11117833Y-13603976D02*
X11003548Y-13603976D01*
X11060690Y-13603976D02*
X11060690Y-13403976D01*
X11041643Y-13432548D01*
X11022595Y-13451595D01*
X11003548Y-13461119D01*
X11298786Y-13403976D02*
X11203548Y-13403976D01*
X11194024Y-13499214D01*
X11203548Y-13489690D01*
X11222595Y-13480167D01*
X11270214Y-13480167D01*
X11289262Y-13489690D01*
X11298786Y-13499214D01*
X11308309Y-13518262D01*
X11308309Y-13565881D01*
X11298786Y-13584928D01*
X11289262Y-13594452D01*
X11270214Y-13603976D01*
X11222595Y-13603976D01*
X11203548Y-13594452D01*
X11194024Y-13584928D01*
X11374976Y-13403976D02*
X11508309Y-13403976D01*
X11422595Y-13603976D01*
X11574976Y-13403976D02*
X11574976Y-13442071D01*
X11651167Y-13403976D02*
X11651167Y-13442071D01*
X11946405Y-13680167D02*
X11936881Y-13670643D01*
X11917833Y-13642071D01*
X11908309Y-13623024D01*
X11898786Y-13594452D01*
X11889262Y-13546833D01*
X11889262Y-13508738D01*
X11898786Y-13461119D01*
X11908309Y-13432548D01*
X11917833Y-13413500D01*
X11936881Y-13384928D01*
X11946405Y-13375405D01*
X12117833Y-13403976D02*
X12022595Y-13403976D01*
X12013071Y-13499214D01*
X12022595Y-13489690D01*
X12041643Y-13480167D01*
X12089262Y-13480167D01*
X12108309Y-13489690D01*
X12117833Y-13499214D01*
X12127357Y-13518262D01*
X12127357Y-13565881D01*
X12117833Y-13584928D01*
X12108309Y-13594452D01*
X12089262Y-13603976D01*
X12041643Y-13603976D01*
X12022595Y-13594452D01*
X12013071Y-13584928D01*
X12308309Y-13403976D02*
X12213071Y-13403976D01*
X12203548Y-13499214D01*
X12213071Y-13489690D01*
X12232119Y-13480167D01*
X12279738Y-13480167D01*
X12298786Y-13489690D01*
X12308309Y-13499214D01*
X12317833Y-13518262D01*
X12317833Y-13565881D01*
X12308309Y-13584928D01*
X12298786Y-13594452D01*
X12279738Y-13603976D01*
X12232119Y-13603976D01*
X12213071Y-13594452D01*
X12203548Y-13584928D01*
X12555928Y-13603976D02*
X12555928Y-13403976D01*
X12641643Y-13603976D02*
X12641643Y-13499214D01*
X12632119Y-13480167D01*
X12613071Y-13470643D01*
X12584500Y-13470643D01*
X12565452Y-13480167D01*
X12555928Y-13489690D01*
X12765452Y-13603976D02*
X12746405Y-13594452D01*
X12736881Y-13584928D01*
X12727357Y-13565881D01*
X12727357Y-13508738D01*
X12736881Y-13489690D01*
X12746405Y-13480167D01*
X12765452Y-13470643D01*
X12794024Y-13470643D01*
X12813071Y-13480167D01*
X12822595Y-13489690D01*
X12832119Y-13508738D01*
X12832119Y-13565881D01*
X12822595Y-13584928D01*
X12813071Y-13594452D01*
X12794024Y-13603976D01*
X12765452Y-13603976D01*
X12946405Y-13603976D02*
X12927357Y-13594452D01*
X12917833Y-13575405D01*
X12917833Y-13403976D01*
X13098786Y-13594452D02*
X13079738Y-13603976D01*
X13041643Y-13603976D01*
X13022595Y-13594452D01*
X13013071Y-13575405D01*
X13013071Y-13499214D01*
X13022595Y-13480167D01*
X13041643Y-13470643D01*
X13079738Y-13470643D01*
X13098786Y-13480167D01*
X13108309Y-13499214D01*
X13108309Y-13518262D01*
X13013071Y-13537309D01*
X13184500Y-13594452D02*
X13203548Y-13603976D01*
X13241643Y-13603976D01*
X13260690Y-13594452D01*
X13270214Y-13575405D01*
X13270214Y-13565881D01*
X13260690Y-13546833D01*
X13241643Y-13537309D01*
X13213071Y-13537309D01*
X13194024Y-13527786D01*
X13184500Y-13508738D01*
X13184500Y-13499214D01*
X13194024Y-13480167D01*
X13213071Y-13470643D01*
X13241643Y-13470643D01*
X13260690Y-13480167D01*
X13336881Y-13680167D02*
X13346405Y-13670643D01*
X13365452Y-13642071D01*
X13374976Y-13623024D01*
X13384500Y-13594452D01*
X13394024Y-13546833D01*
X13394024Y-13508738D01*
X13384500Y-13461119D01*
X13374976Y-13432548D01*
X13365452Y-13413500D01*
X13346405Y-13384928D01*
X13336881Y-13375405D01*
D13*
X8374500Y-13777500D02*
G75*
G03*
X8374500Y-13777500I-35000J0D01*
G01*
D11*
X8670214Y-13667976D02*
X8689262Y-13667976D01*
X8708310Y-13677500D01*
X8717833Y-13687024D01*
X8727357Y-13706071D01*
X8736881Y-13744167D01*
X8736881Y-13791786D01*
X8727357Y-13829881D01*
X8717833Y-13848928D01*
X8708310Y-13858452D01*
X8689262Y-13867976D01*
X8670214Y-13867976D01*
X8651167Y-13858452D01*
X8641643Y-13848928D01*
X8632119Y-13829881D01*
X8622595Y-13791786D01*
X8622595Y-13744167D01*
X8632119Y-13706071D01*
X8641643Y-13687024D01*
X8651167Y-13677500D01*
X8670214Y-13667976D01*
X8822595Y-13848928D02*
X8832119Y-13858452D01*
X8822595Y-13867976D01*
X8813071Y-13858452D01*
X8822595Y-13848928D01*
X8822595Y-13867976D01*
X8898786Y-13667976D02*
X9032119Y-13667976D01*
X8946405Y-13867976D01*
X9146405Y-13667976D02*
X9165452Y-13667976D01*
X9184500Y-13677500D01*
X9194024Y-13687024D01*
X9203548Y-13706071D01*
X9213071Y-13744167D01*
X9213071Y-13791786D01*
X9203548Y-13829881D01*
X9194024Y-13848928D01*
X9184500Y-13858452D01*
X9165452Y-13867976D01*
X9146405Y-13867976D01*
X9127357Y-13858452D01*
X9117833Y-13848928D01*
X9108310Y-13829881D01*
X9098786Y-13791786D01*
X9098786Y-13744167D01*
X9108310Y-13706071D01*
X9117833Y-13687024D01*
X9127357Y-13677500D01*
X9146405Y-13667976D01*
X9336881Y-13667976D02*
X9355929Y-13667976D01*
X9374976Y-13677500D01*
X9384500Y-13687024D01*
X9394024Y-13706071D01*
X9403548Y-13744167D01*
X9403548Y-13791786D01*
X9394024Y-13829881D01*
X9384500Y-13848928D01*
X9374976Y-13858452D01*
X9355929Y-13867976D01*
X9336881Y-13867976D01*
X9317833Y-13858452D01*
X9308310Y-13848928D01*
X9298786Y-13829881D01*
X9289262Y-13791786D01*
X9289262Y-13744167D01*
X9298786Y-13706071D01*
X9308310Y-13687024D01*
X9317833Y-13677500D01*
X9336881Y-13667976D01*
X9489262Y-13867976D02*
X9489262Y-13734643D01*
X9489262Y-13753690D02*
X9498786Y-13744167D01*
X9517833Y-13734643D01*
X9546405Y-13734643D01*
X9565452Y-13744167D01*
X9574976Y-13763214D01*
X9574976Y-13867976D01*
X9574976Y-13763214D02*
X9584500Y-13744167D01*
X9603548Y-13734643D01*
X9632119Y-13734643D01*
X9651167Y-13744167D01*
X9660690Y-13763214D01*
X9660690Y-13867976D01*
X9755929Y-13867976D02*
X9755929Y-13734643D01*
X9755929Y-13753690D02*
X9765452Y-13744167D01*
X9784500Y-13734643D01*
X9813071Y-13734643D01*
X9832119Y-13744167D01*
X9841643Y-13763214D01*
X9841643Y-13867976D01*
X9841643Y-13763214D02*
X9851167Y-13744167D01*
X9870214Y-13734643D01*
X9898786Y-13734643D01*
X9917833Y-13744167D01*
X9927357Y-13763214D01*
X9927357Y-13867976D01*
X10317833Y-13658452D02*
X10146405Y-13915595D01*
X10574976Y-13667976D02*
X10594024Y-13667976D01*
X10613071Y-13677500D01*
X10622595Y-13687024D01*
X10632119Y-13706071D01*
X10641643Y-13744167D01*
X10641643Y-13791786D01*
X10632119Y-13829881D01*
X10622595Y-13848928D01*
X10613071Y-13858452D01*
X10594024Y-13867976D01*
X10574976Y-13867976D01*
X10555929Y-13858452D01*
X10546405Y-13848928D01*
X10536881Y-13829881D01*
X10527357Y-13791786D01*
X10527357Y-13744167D01*
X10536881Y-13706071D01*
X10546405Y-13687024D01*
X10555929Y-13677500D01*
X10574976Y-13667976D01*
X10727357Y-13848928D02*
X10736881Y-13858452D01*
X10727357Y-13867976D01*
X10717833Y-13858452D01*
X10727357Y-13848928D01*
X10727357Y-13867976D01*
X10860690Y-13667976D02*
X10879738Y-13667976D01*
X10898786Y-13677500D01*
X10908310Y-13687024D01*
X10917833Y-13706071D01*
X10927357Y-13744167D01*
X10927357Y-13791786D01*
X10917833Y-13829881D01*
X10908310Y-13848928D01*
X10898786Y-13858452D01*
X10879738Y-13867976D01*
X10860690Y-13867976D01*
X10841643Y-13858452D01*
X10832119Y-13848928D01*
X10822595Y-13829881D01*
X10813071Y-13791786D01*
X10813071Y-13744167D01*
X10822595Y-13706071D01*
X10832119Y-13687024D01*
X10841643Y-13677500D01*
X10860690Y-13667976D01*
X11003548Y-13687024D02*
X11013071Y-13677500D01*
X11032119Y-13667976D01*
X11079738Y-13667976D01*
X11098786Y-13677500D01*
X11108310Y-13687024D01*
X11117833Y-13706071D01*
X11117833Y-13725119D01*
X11108310Y-13753690D01*
X10994024Y-13867976D01*
X11117833Y-13867976D01*
X11184500Y-13667976D02*
X11317833Y-13667976D01*
X11232119Y-13867976D01*
X11479738Y-13667976D02*
X11441643Y-13667976D01*
X11422595Y-13677500D01*
X11413071Y-13687024D01*
X11394024Y-13715595D01*
X11384500Y-13753690D01*
X11384500Y-13829881D01*
X11394024Y-13848928D01*
X11403548Y-13858452D01*
X11422595Y-13867976D01*
X11460690Y-13867976D01*
X11479738Y-13858452D01*
X11489262Y-13848928D01*
X11498786Y-13829881D01*
X11498786Y-13782262D01*
X11489262Y-13763214D01*
X11479738Y-13753690D01*
X11460690Y-13744167D01*
X11422595Y-13744167D01*
X11403548Y-13753690D01*
X11394024Y-13763214D01*
X11384500Y-13782262D01*
X11574976Y-13667976D02*
X11574976Y-13706071D01*
X11651167Y-13667976D02*
X11651167Y-13706071D01*
X11946405Y-13944167D02*
X11936881Y-13934643D01*
X11917833Y-13906071D01*
X11908309Y-13887024D01*
X11898786Y-13858452D01*
X11889262Y-13810833D01*
X11889262Y-13772738D01*
X11898786Y-13725119D01*
X11908309Y-13696548D01*
X11917833Y-13677500D01*
X11936881Y-13648928D01*
X11946405Y-13639405D01*
X12003548Y-13667976D02*
X12127357Y-13667976D01*
X12060690Y-13744167D01*
X12089262Y-13744167D01*
X12108309Y-13753690D01*
X12117833Y-13763214D01*
X12127357Y-13782262D01*
X12127357Y-13829881D01*
X12117833Y-13848928D01*
X12108309Y-13858452D01*
X12089262Y-13867976D01*
X12032119Y-13867976D01*
X12013071Y-13858452D01*
X12003548Y-13848928D01*
X12365452Y-13867976D02*
X12365452Y-13667976D01*
X12451167Y-13867976D02*
X12451167Y-13763214D01*
X12441643Y-13744167D01*
X12422595Y-13734643D01*
X12394024Y-13734643D01*
X12374976Y-13744167D01*
X12365452Y-13753690D01*
X12574976Y-13867976D02*
X12555928Y-13858452D01*
X12546405Y-13848928D01*
X12536881Y-13829881D01*
X12536881Y-13772738D01*
X12546405Y-13753690D01*
X12555928Y-13744167D01*
X12574976Y-13734643D01*
X12603548Y-13734643D01*
X12622595Y-13744167D01*
X12632119Y-13753690D01*
X12641643Y-13772738D01*
X12641643Y-13829881D01*
X12632119Y-13848928D01*
X12622595Y-13858452D01*
X12603548Y-13867976D01*
X12574976Y-13867976D01*
X12755928Y-13867976D02*
X12736881Y-13858452D01*
X12727357Y-13839405D01*
X12727357Y-13667976D01*
X12908309Y-13858452D02*
X12889262Y-13867976D01*
X12851167Y-13867976D01*
X12832119Y-13858452D01*
X12822595Y-13839405D01*
X12822595Y-13763214D01*
X12832119Y-13744167D01*
X12851167Y-13734643D01*
X12889262Y-13734643D01*
X12908309Y-13744167D01*
X12917833Y-13763214D01*
X12917833Y-13782262D01*
X12822595Y-13801309D01*
X12994024Y-13858452D02*
X13013071Y-13867976D01*
X13051167Y-13867976D01*
X13070214Y-13858452D01*
X13079738Y-13839405D01*
X13079738Y-13829881D01*
X13070214Y-13810833D01*
X13051167Y-13801309D01*
X13022595Y-13801309D01*
X13003548Y-13791786D01*
X12994024Y-13772738D01*
X12994024Y-13763214D01*
X13003548Y-13744167D01*
X13022595Y-13734643D01*
X13051167Y-13734643D01*
X13070214Y-13744167D01*
X13146405Y-13944167D02*
X13155928Y-13934643D01*
X13174976Y-13906071D01*
X13184500Y-13887024D01*
X13194024Y-13858452D01*
X13203548Y-13810833D01*
X13203548Y-13772738D01*
X13194024Y-13725119D01*
X13184500Y-13696548D01*
X13174976Y-13677500D01*
X13155928Y-13648928D01*
X13146405Y-13639405D01*
D14*
X8334500Y-14001500D02*
X8334500Y-14081500D01*
X8294500Y-14041500D02*
X8374500Y-14041500D01*
D11*
X8670214Y-13931976D02*
X8689262Y-13931976D01*
X8708310Y-13941500D01*
X8717833Y-13951024D01*
X8727357Y-13970071D01*
X8736881Y-14008167D01*
X8736881Y-14055786D01*
X8727357Y-14093881D01*
X8717833Y-14112928D01*
X8708310Y-14122452D01*
X8689262Y-14131976D01*
X8670214Y-14131976D01*
X8651167Y-14122452D01*
X8641643Y-14112928D01*
X8632119Y-14093881D01*
X8622595Y-14055786D01*
X8622595Y-14008167D01*
X8632119Y-13970071D01*
X8641643Y-13951024D01*
X8651167Y-13941500D01*
X8670214Y-13931976D01*
X8822595Y-14112928D02*
X8832119Y-14122452D01*
X8822595Y-14131976D01*
X8813071Y-14122452D01*
X8822595Y-14112928D01*
X8822595Y-14131976D01*
X8946405Y-14017690D02*
X8927357Y-14008167D01*
X8917833Y-13998643D01*
X8908310Y-13979595D01*
X8908310Y-13970071D01*
X8917833Y-13951024D01*
X8927357Y-13941500D01*
X8946405Y-13931976D01*
X8984500Y-13931976D01*
X9003548Y-13941500D01*
X9013071Y-13951024D01*
X9022595Y-13970071D01*
X9022595Y-13979595D01*
X9013071Y-13998643D01*
X9003548Y-14008167D01*
X8984500Y-14017690D01*
X8946405Y-14017690D01*
X8927357Y-14027214D01*
X8917833Y-14036738D01*
X8908310Y-14055786D01*
X8908310Y-14093881D01*
X8917833Y-14112928D01*
X8927357Y-14122452D01*
X8946405Y-14131976D01*
X8984500Y-14131976D01*
X9003548Y-14122452D01*
X9013071Y-14112928D01*
X9022595Y-14093881D01*
X9022595Y-14055786D01*
X9013071Y-14036738D01*
X9003548Y-14027214D01*
X8984500Y-14017690D01*
X9146405Y-13931976D02*
X9165452Y-13931976D01*
X9184500Y-13941500D01*
X9194024Y-13951024D01*
X9203548Y-13970071D01*
X9213071Y-14008167D01*
X9213071Y-14055786D01*
X9203548Y-14093881D01*
X9194024Y-14112928D01*
X9184500Y-14122452D01*
X9165452Y-14131976D01*
X9146405Y-14131976D01*
X9127357Y-14122452D01*
X9117833Y-14112928D01*
X9108310Y-14093881D01*
X9098786Y-14055786D01*
X9098786Y-14008167D01*
X9108310Y-13970071D01*
X9117833Y-13951024D01*
X9127357Y-13941500D01*
X9146405Y-13931976D01*
X9336881Y-13931976D02*
X9355929Y-13931976D01*
X9374976Y-13941500D01*
X9384500Y-13951024D01*
X9394024Y-13970071D01*
X9403548Y-14008167D01*
X9403548Y-14055786D01*
X9394024Y-14093881D01*
X9384500Y-14112928D01*
X9374976Y-14122452D01*
X9355929Y-14131976D01*
X9336881Y-14131976D01*
X9317833Y-14122452D01*
X9308310Y-14112928D01*
X9298786Y-14093881D01*
X9289262Y-14055786D01*
X9289262Y-14008167D01*
X9298786Y-13970071D01*
X9308310Y-13951024D01*
X9317833Y-13941500D01*
X9336881Y-13931976D01*
X9489262Y-14131976D02*
X9489262Y-13998643D01*
X9489262Y-14017690D02*
X9498786Y-14008167D01*
X9517833Y-13998643D01*
X9546405Y-13998643D01*
X9565452Y-14008167D01*
X9574976Y-14027214D01*
X9574976Y-14131976D01*
X9574976Y-14027214D02*
X9584500Y-14008167D01*
X9603548Y-13998643D01*
X9632119Y-13998643D01*
X9651167Y-14008167D01*
X9660690Y-14027214D01*
X9660690Y-14131976D01*
X9755929Y-14131976D02*
X9755929Y-13998643D01*
X9755929Y-14017690D02*
X9765452Y-14008167D01*
X9784500Y-13998643D01*
X9813071Y-13998643D01*
X9832119Y-14008167D01*
X9841643Y-14027214D01*
X9841643Y-14131976D01*
X9841643Y-14027214D02*
X9851167Y-14008167D01*
X9870214Y-13998643D01*
X9898786Y-13998643D01*
X9917833Y-14008167D01*
X9927357Y-14027214D01*
X9927357Y-14131976D01*
X10317833Y-13922452D02*
X10146405Y-14179595D01*
X10574976Y-13931976D02*
X10594024Y-13931976D01*
X10613071Y-13941500D01*
X10622595Y-13951024D01*
X10632119Y-13970071D01*
X10641643Y-14008167D01*
X10641643Y-14055786D01*
X10632119Y-14093881D01*
X10622595Y-14112928D01*
X10613071Y-14122452D01*
X10594024Y-14131976D01*
X10574976Y-14131976D01*
X10555929Y-14122452D01*
X10546405Y-14112928D01*
X10536881Y-14093881D01*
X10527357Y-14055786D01*
X10527357Y-14008167D01*
X10536881Y-13970071D01*
X10546405Y-13951024D01*
X10555929Y-13941500D01*
X10574976Y-13931976D01*
X10727357Y-14112928D02*
X10736881Y-14122452D01*
X10727357Y-14131976D01*
X10717833Y-14122452D01*
X10727357Y-14112928D01*
X10727357Y-14131976D01*
X10860690Y-13931976D02*
X10879738Y-13931976D01*
X10898786Y-13941500D01*
X10908310Y-13951024D01*
X10917833Y-13970071D01*
X10927357Y-14008167D01*
X10927357Y-14055786D01*
X10917833Y-14093881D01*
X10908310Y-14112928D01*
X10898786Y-14122452D01*
X10879738Y-14131976D01*
X10860690Y-14131976D01*
X10841643Y-14122452D01*
X10832119Y-14112928D01*
X10822595Y-14093881D01*
X10813071Y-14055786D01*
X10813071Y-14008167D01*
X10822595Y-13970071D01*
X10832119Y-13951024D01*
X10841643Y-13941500D01*
X10860690Y-13931976D01*
X10994024Y-13931976D02*
X11117833Y-13931976D01*
X11051167Y-14008167D01*
X11079738Y-14008167D01*
X11098786Y-14017690D01*
X11108310Y-14027214D01*
X11117833Y-14046262D01*
X11117833Y-14093881D01*
X11108310Y-14112928D01*
X11098786Y-14122452D01*
X11079738Y-14131976D01*
X11022595Y-14131976D01*
X11003548Y-14122452D01*
X10994024Y-14112928D01*
X11308309Y-14131976D02*
X11194024Y-14131976D01*
X11251167Y-14131976D02*
X11251167Y-13931976D01*
X11232119Y-13960548D01*
X11213071Y-13979595D01*
X11194024Y-13989119D01*
X11489262Y-13931976D02*
X11394024Y-13931976D01*
X11384500Y-14027214D01*
X11394024Y-14017690D01*
X11413071Y-14008167D01*
X11460690Y-14008167D01*
X11479738Y-14017690D01*
X11489262Y-14027214D01*
X11498786Y-14046262D01*
X11498786Y-14093881D01*
X11489262Y-14112928D01*
X11479738Y-14122452D01*
X11460690Y-14131976D01*
X11413071Y-14131976D01*
X11394024Y-14122452D01*
X11384500Y-14112928D01*
X11574976Y-13931976D02*
X11574976Y-13970071D01*
X11651167Y-13931976D02*
X11651167Y-13970071D01*
X11946405Y-14208167D02*
X11936881Y-14198643D01*
X11917833Y-14170071D01*
X11908309Y-14151024D01*
X11898786Y-14122452D01*
X11889262Y-14074833D01*
X11889262Y-14036738D01*
X11898786Y-13989119D01*
X11908309Y-13960548D01*
X11917833Y-13941500D01*
X11936881Y-13912928D01*
X11946405Y-13903405D01*
X12108309Y-13931976D02*
X12070214Y-13931976D01*
X12051167Y-13941500D01*
X12041643Y-13951024D01*
X12022595Y-13979595D01*
X12013071Y-14017690D01*
X12013071Y-14093881D01*
X12022595Y-14112928D01*
X12032119Y-14122452D01*
X12051167Y-14131976D01*
X12089262Y-14131976D01*
X12108309Y-14122452D01*
X12117833Y-14112928D01*
X12127357Y-14093881D01*
X12127357Y-14046262D01*
X12117833Y-14027214D01*
X12108309Y-14017690D01*
X12089262Y-14008167D01*
X12051167Y-14008167D01*
X12032119Y-14017690D01*
X12022595Y-14027214D01*
X12013071Y-14046262D01*
X12365452Y-14131976D02*
X12365452Y-13931976D01*
X12451167Y-14131976D02*
X12451167Y-14027214D01*
X12441643Y-14008167D01*
X12422595Y-13998643D01*
X12394024Y-13998643D01*
X12374976Y-14008167D01*
X12365452Y-14017690D01*
X12574976Y-14131976D02*
X12555928Y-14122452D01*
X12546405Y-14112928D01*
X12536881Y-14093881D01*
X12536881Y-14036738D01*
X12546405Y-14017690D01*
X12555928Y-14008167D01*
X12574976Y-13998643D01*
X12603548Y-13998643D01*
X12622595Y-14008167D01*
X12632119Y-14017690D01*
X12641643Y-14036738D01*
X12641643Y-14093881D01*
X12632119Y-14112928D01*
X12622595Y-14122452D01*
X12603548Y-14131976D01*
X12574976Y-14131976D01*
X12755928Y-14131976D02*
X12736881Y-14122452D01*
X12727357Y-14103405D01*
X12727357Y-13931976D01*
X12908309Y-14122452D02*
X12889262Y-14131976D01*
X12851167Y-14131976D01*
X12832119Y-14122452D01*
X12822595Y-14103405D01*
X12822595Y-14027214D01*
X12832119Y-14008167D01*
X12851167Y-13998643D01*
X12889262Y-13998643D01*
X12908309Y-14008167D01*
X12917833Y-14027214D01*
X12917833Y-14046262D01*
X12822595Y-14065309D01*
X12994024Y-14122452D02*
X13013071Y-14131976D01*
X13051167Y-14131976D01*
X13070214Y-14122452D01*
X13079738Y-14103405D01*
X13079738Y-14093881D01*
X13070214Y-14074833D01*
X13051167Y-14065309D01*
X13022595Y-14065309D01*
X13003548Y-14055786D01*
X12994024Y-14036738D01*
X12994024Y-14027214D01*
X13003548Y-14008167D01*
X13022595Y-13998643D01*
X13051167Y-13998643D01*
X13070214Y-14008167D01*
X13146405Y-14208167D02*
X13155928Y-14198643D01*
X13174976Y-14170071D01*
X13184500Y-14151024D01*
X13194024Y-14122452D01*
X13203548Y-14074833D01*
X13203548Y-14036738D01*
X13194024Y-13989119D01*
X13184500Y-13960548D01*
X13174976Y-13941500D01*
X13155928Y-13912928D01*
X13146405Y-13903405D01*
D15*
X8360588Y-14339088D02*
X8360588Y-14271912D01*
X8293412Y-14271912D01*
X8293412Y-14339088D01*
X8360588Y-14339088D01*
D11*
X8670214Y-14195976D02*
X8689262Y-14195976D01*
X8708310Y-14205500D01*
X8717833Y-14215024D01*
X8727357Y-14234071D01*
X8736881Y-14272167D01*
X8736881Y-14319786D01*
X8727357Y-14357881D01*
X8717833Y-14376928D01*
X8708310Y-14386452D01*
X8689262Y-14395976D01*
X8670214Y-14395976D01*
X8651167Y-14386452D01*
X8641643Y-14376928D01*
X8632119Y-14357881D01*
X8622595Y-14319786D01*
X8622595Y-14272167D01*
X8632119Y-14234071D01*
X8641643Y-14215024D01*
X8651167Y-14205500D01*
X8670214Y-14195976D01*
X8822595Y-14376928D02*
X8832119Y-14386452D01*
X8822595Y-14395976D01*
X8813071Y-14386452D01*
X8822595Y-14376928D01*
X8822595Y-14395976D01*
X8927357Y-14395976D02*
X8965452Y-14395976D01*
X8984500Y-14386452D01*
X8994024Y-14376928D01*
X9013071Y-14348357D01*
X9022595Y-14310262D01*
X9022595Y-14234071D01*
X9013071Y-14215024D01*
X9003548Y-14205500D01*
X8984500Y-14195976D01*
X8946405Y-14195976D01*
X8927357Y-14205500D01*
X8917833Y-14215024D01*
X8908310Y-14234071D01*
X8908310Y-14281690D01*
X8917833Y-14300738D01*
X8927357Y-14310262D01*
X8946405Y-14319786D01*
X8984500Y-14319786D01*
X9003548Y-14310262D01*
X9013071Y-14300738D01*
X9022595Y-14281690D01*
X9203548Y-14195976D02*
X9108310Y-14195976D01*
X9098786Y-14291214D01*
X9108310Y-14281690D01*
X9127357Y-14272167D01*
X9174976Y-14272167D01*
X9194024Y-14281690D01*
X9203548Y-14291214D01*
X9213071Y-14310262D01*
X9213071Y-14357881D01*
X9203548Y-14376928D01*
X9194024Y-14386452D01*
X9174976Y-14395976D01*
X9127357Y-14395976D01*
X9108310Y-14386452D01*
X9098786Y-14376928D01*
X9336881Y-14195976D02*
X9355929Y-14195976D01*
X9374976Y-14205500D01*
X9384500Y-14215024D01*
X9394024Y-14234071D01*
X9403548Y-14272167D01*
X9403548Y-14319786D01*
X9394024Y-14357881D01*
X9384500Y-14376928D01*
X9374976Y-14386452D01*
X9355929Y-14395976D01*
X9336881Y-14395976D01*
X9317833Y-14386452D01*
X9308310Y-14376928D01*
X9298786Y-14357881D01*
X9289262Y-14319786D01*
X9289262Y-14272167D01*
X9298786Y-14234071D01*
X9308310Y-14215024D01*
X9317833Y-14205500D01*
X9336881Y-14195976D01*
X9489262Y-14395976D02*
X9489262Y-14262643D01*
X9489262Y-14281690D02*
X9498786Y-14272167D01*
X9517833Y-14262643D01*
X9546405Y-14262643D01*
X9565452Y-14272167D01*
X9574976Y-14291214D01*
X9574976Y-14395976D01*
X9574976Y-14291214D02*
X9584500Y-14272167D01*
X9603548Y-14262643D01*
X9632119Y-14262643D01*
X9651167Y-14272167D01*
X9660690Y-14291214D01*
X9660690Y-14395976D01*
X9755929Y-14395976D02*
X9755929Y-14262643D01*
X9755929Y-14281690D02*
X9765452Y-14272167D01*
X9784500Y-14262643D01*
X9813071Y-14262643D01*
X9832119Y-14272167D01*
X9841643Y-14291214D01*
X9841643Y-14395976D01*
X9841643Y-14291214D02*
X9851167Y-14272167D01*
X9870214Y-14262643D01*
X9898786Y-14262643D01*
X9917833Y-14272167D01*
X9927357Y-14291214D01*
X9927357Y-14395976D01*
X10317833Y-14186452D02*
X10146405Y-14443595D01*
X10574976Y-14195976D02*
X10594024Y-14195976D01*
X10613071Y-14205500D01*
X10622595Y-14215024D01*
X10632119Y-14234071D01*
X10641643Y-14272167D01*
X10641643Y-14319786D01*
X10632119Y-14357881D01*
X10622595Y-14376928D01*
X10613071Y-14386452D01*
X10594024Y-14395976D01*
X10574976Y-14395976D01*
X10555929Y-14386452D01*
X10546405Y-14376928D01*
X10536881Y-14357881D01*
X10527357Y-14319786D01*
X10527357Y-14272167D01*
X10536881Y-14234071D01*
X10546405Y-14215024D01*
X10555929Y-14205500D01*
X10574976Y-14195976D01*
X10727357Y-14376928D02*
X10736881Y-14386452D01*
X10727357Y-14395976D01*
X10717833Y-14386452D01*
X10727357Y-14376928D01*
X10727357Y-14395976D01*
X10860690Y-14195976D02*
X10879738Y-14195976D01*
X10898786Y-14205500D01*
X10908310Y-14215024D01*
X10917833Y-14234071D01*
X10927357Y-14272167D01*
X10927357Y-14319786D01*
X10917833Y-14357881D01*
X10908310Y-14376928D01*
X10898786Y-14386452D01*
X10879738Y-14395976D01*
X10860690Y-14395976D01*
X10841643Y-14386452D01*
X10832119Y-14376928D01*
X10822595Y-14357881D01*
X10813071Y-14319786D01*
X10813071Y-14272167D01*
X10822595Y-14234071D01*
X10832119Y-14215024D01*
X10841643Y-14205500D01*
X10860690Y-14195976D01*
X10994024Y-14195976D02*
X11117833Y-14195976D01*
X11051167Y-14272167D01*
X11079738Y-14272167D01*
X11098786Y-14281690D01*
X11108310Y-14291214D01*
X11117833Y-14310262D01*
X11117833Y-14357881D01*
X11108310Y-14376928D01*
X11098786Y-14386452D01*
X11079738Y-14395976D01*
X11022595Y-14395976D01*
X11003548Y-14386452D01*
X10994024Y-14376928D01*
X11184500Y-14195976D02*
X11317833Y-14195976D01*
X11232119Y-14395976D01*
X11479738Y-14262643D02*
X11479738Y-14395976D01*
X11432119Y-14186452D02*
X11384500Y-14329309D01*
X11508309Y-14329309D01*
X11574976Y-14195976D02*
X11574976Y-14234071D01*
X11651167Y-14195976D02*
X11651167Y-14234071D01*
X11946405Y-14472167D02*
X11936881Y-14462643D01*
X11917833Y-14434071D01*
X11908309Y-14415024D01*
X11898786Y-14386452D01*
X11889262Y-14338833D01*
X11889262Y-14300738D01*
X11898786Y-14253119D01*
X11908309Y-14224548D01*
X11917833Y-14205500D01*
X11936881Y-14176928D01*
X11946405Y-14167405D01*
X12127357Y-14395976D02*
X12013071Y-14395976D01*
X12070214Y-14395976D02*
X12070214Y-14195976D01*
X12051167Y-14224548D01*
X12032119Y-14243595D01*
X12013071Y-14253119D01*
X12203548Y-14215024D02*
X12213071Y-14205500D01*
X12232119Y-14195976D01*
X12279738Y-14195976D01*
X12298786Y-14205500D01*
X12308309Y-14215024D01*
X12317833Y-14234071D01*
X12317833Y-14253119D01*
X12308309Y-14281690D01*
X12194024Y-14395976D01*
X12317833Y-14395976D01*
X12555928Y-14395976D02*
X12555928Y-14195976D01*
X12641643Y-14395976D02*
X12641643Y-14291214D01*
X12632119Y-14272167D01*
X12613071Y-14262643D01*
X12584500Y-14262643D01*
X12565452Y-14272167D01*
X12555928Y-14281690D01*
X12765452Y-14395976D02*
X12746405Y-14386452D01*
X12736881Y-14376928D01*
X12727357Y-14357881D01*
X12727357Y-14300738D01*
X12736881Y-14281690D01*
X12746405Y-14272167D01*
X12765452Y-14262643D01*
X12794024Y-14262643D01*
X12813071Y-14272167D01*
X12822595Y-14281690D01*
X12832119Y-14300738D01*
X12832119Y-14357881D01*
X12822595Y-14376928D01*
X12813071Y-14386452D01*
X12794024Y-14395976D01*
X12765452Y-14395976D01*
X12946405Y-14395976D02*
X12927357Y-14386452D01*
X12917833Y-14367405D01*
X12917833Y-14195976D01*
X13098786Y-14386452D02*
X13079738Y-14395976D01*
X13041643Y-14395976D01*
X13022595Y-14386452D01*
X13013071Y-14367405D01*
X13013071Y-14291214D01*
X13022595Y-14272167D01*
X13041643Y-14262643D01*
X13079738Y-14262643D01*
X13098786Y-14272167D01*
X13108309Y-14291214D01*
X13108309Y-14310262D01*
X13013071Y-14329309D01*
X13184500Y-14386452D02*
X13203548Y-14395976D01*
X13241643Y-14395976D01*
X13260690Y-14386452D01*
X13270214Y-14367405D01*
X13270214Y-14357881D01*
X13260690Y-14338833D01*
X13241643Y-14329309D01*
X13213071Y-14329309D01*
X13194024Y-14319786D01*
X13184500Y-14300738D01*
X13184500Y-14291214D01*
X13194024Y-14272167D01*
X13213071Y-14262643D01*
X13241643Y-14262643D01*
X13260690Y-14272167D01*
X13336881Y-14472167D02*
X13346405Y-14462643D01*
X13365452Y-14434071D01*
X13374976Y-14415024D01*
X13384500Y-14386452D01*
X13394024Y-14338833D01*
X13394024Y-14300738D01*
X13384500Y-14253119D01*
X13374976Y-14224548D01*
X13365452Y-14205500D01*
X13346405Y-14176928D01*
X13336881Y-14167405D01*
D16*
X8325000Y-14619000D02*
X8374500Y-14569500D01*
X8325000Y-14520000D01*
X8275500Y-14569500D01*
X8325000Y-14619000D01*
D11*
X8670214Y-14459976D02*
X8689262Y-14459976D01*
X8708310Y-14469500D01*
X8717833Y-14479024D01*
X8727357Y-14498071D01*
X8736881Y-14536167D01*
X8736881Y-14583786D01*
X8727357Y-14621881D01*
X8717833Y-14640928D01*
X8708310Y-14650452D01*
X8689262Y-14659976D01*
X8670214Y-14659976D01*
X8651167Y-14650452D01*
X8641643Y-14640928D01*
X8632119Y-14621881D01*
X8622595Y-14583786D01*
X8622595Y-14536167D01*
X8632119Y-14498071D01*
X8641643Y-14479024D01*
X8651167Y-14469500D01*
X8670214Y-14459976D01*
X8822595Y-14640928D02*
X8832119Y-14650452D01*
X8822595Y-14659976D01*
X8813071Y-14650452D01*
X8822595Y-14640928D01*
X8822595Y-14659976D01*
X8927357Y-14659976D02*
X8965452Y-14659976D01*
X8984500Y-14650452D01*
X8994024Y-14640928D01*
X9013071Y-14612357D01*
X9022595Y-14574262D01*
X9022595Y-14498071D01*
X9013071Y-14479024D01*
X9003548Y-14469500D01*
X8984500Y-14459976D01*
X8946405Y-14459976D01*
X8927357Y-14469500D01*
X8917833Y-14479024D01*
X8908310Y-14498071D01*
X8908310Y-14545690D01*
X8917833Y-14564738D01*
X8927357Y-14574262D01*
X8946405Y-14583786D01*
X8984500Y-14583786D01*
X9003548Y-14574262D01*
X9013071Y-14564738D01*
X9022595Y-14545690D01*
X9117833Y-14659976D02*
X9155929Y-14659976D01*
X9174976Y-14650452D01*
X9184500Y-14640928D01*
X9203548Y-14612357D01*
X9213071Y-14574262D01*
X9213071Y-14498071D01*
X9203548Y-14479024D01*
X9194024Y-14469500D01*
X9174976Y-14459976D01*
X9136881Y-14459976D01*
X9117833Y-14469500D01*
X9108310Y-14479024D01*
X9098786Y-14498071D01*
X9098786Y-14545690D01*
X9108310Y-14564738D01*
X9117833Y-14574262D01*
X9136881Y-14583786D01*
X9174976Y-14583786D01*
X9194024Y-14574262D01*
X9203548Y-14564738D01*
X9213071Y-14545690D01*
X9336881Y-14459976D02*
X9355929Y-14459976D01*
X9374976Y-14469500D01*
X9384500Y-14479024D01*
X9394024Y-14498071D01*
X9403548Y-14536167D01*
X9403548Y-14583786D01*
X9394024Y-14621881D01*
X9384500Y-14640928D01*
X9374976Y-14650452D01*
X9355929Y-14659976D01*
X9336881Y-14659976D01*
X9317833Y-14650452D01*
X9308310Y-14640928D01*
X9298786Y-14621881D01*
X9289262Y-14583786D01*
X9289262Y-14536167D01*
X9298786Y-14498071D01*
X9308310Y-14479024D01*
X9317833Y-14469500D01*
X9336881Y-14459976D01*
X9489262Y-14659976D02*
X9489262Y-14526643D01*
X9489262Y-14545690D02*
X9498786Y-14536167D01*
X9517833Y-14526643D01*
X9546405Y-14526643D01*
X9565452Y-14536167D01*
X9574976Y-14555214D01*
X9574976Y-14659976D01*
X9574976Y-14555214D02*
X9584500Y-14536167D01*
X9603548Y-14526643D01*
X9632119Y-14526643D01*
X9651167Y-14536167D01*
X9660690Y-14555214D01*
X9660690Y-14659976D01*
X9755929Y-14659976D02*
X9755929Y-14526643D01*
X9755929Y-14545690D02*
X9765452Y-14536167D01*
X9784500Y-14526643D01*
X9813071Y-14526643D01*
X9832119Y-14536167D01*
X9841643Y-14555214D01*
X9841643Y-14659976D01*
X9841643Y-14555214D02*
X9851167Y-14536167D01*
X9870214Y-14526643D01*
X9898786Y-14526643D01*
X9917833Y-14536167D01*
X9927357Y-14555214D01*
X9927357Y-14659976D01*
X10317833Y-14450452D02*
X10146405Y-14707595D01*
X10574976Y-14459976D02*
X10594024Y-14459976D01*
X10613071Y-14469500D01*
X10622595Y-14479024D01*
X10632119Y-14498071D01*
X10641643Y-14536167D01*
X10641643Y-14583786D01*
X10632119Y-14621881D01*
X10622595Y-14640928D01*
X10613071Y-14650452D01*
X10594024Y-14659976D01*
X10574976Y-14659976D01*
X10555929Y-14650452D01*
X10546405Y-14640928D01*
X10536881Y-14621881D01*
X10527357Y-14583786D01*
X10527357Y-14536167D01*
X10536881Y-14498071D01*
X10546405Y-14479024D01*
X10555929Y-14469500D01*
X10574976Y-14459976D01*
X10727357Y-14640928D02*
X10736881Y-14650452D01*
X10727357Y-14659976D01*
X10717833Y-14650452D01*
X10727357Y-14640928D01*
X10727357Y-14659976D01*
X10860690Y-14459976D02*
X10879738Y-14459976D01*
X10898786Y-14469500D01*
X10908310Y-14479024D01*
X10917833Y-14498071D01*
X10927357Y-14536167D01*
X10927357Y-14583786D01*
X10917833Y-14621881D01*
X10908310Y-14640928D01*
X10898786Y-14650452D01*
X10879738Y-14659976D01*
X10860690Y-14659976D01*
X10841643Y-14650452D01*
X10832119Y-14640928D01*
X10822595Y-14621881D01*
X10813071Y-14583786D01*
X10813071Y-14536167D01*
X10822595Y-14498071D01*
X10832119Y-14479024D01*
X10841643Y-14469500D01*
X10860690Y-14459976D01*
X10994024Y-14459976D02*
X11117833Y-14459976D01*
X11051167Y-14536167D01*
X11079738Y-14536167D01*
X11098786Y-14545690D01*
X11108310Y-14555214D01*
X11117833Y-14574262D01*
X11117833Y-14621881D01*
X11108310Y-14640928D01*
X11098786Y-14650452D01*
X11079738Y-14659976D01*
X11022595Y-14659976D01*
X11003548Y-14650452D01*
X10994024Y-14640928D01*
X11213071Y-14659976D02*
X11251167Y-14659976D01*
X11270214Y-14650452D01*
X11279738Y-14640928D01*
X11298786Y-14612357D01*
X11308309Y-14574262D01*
X11308309Y-14498071D01*
X11298786Y-14479024D01*
X11289262Y-14469500D01*
X11270214Y-14459976D01*
X11232119Y-14459976D01*
X11213071Y-14469500D01*
X11203548Y-14479024D01*
X11194024Y-14498071D01*
X11194024Y-14545690D01*
X11203548Y-14564738D01*
X11213071Y-14574262D01*
X11232119Y-14583786D01*
X11270214Y-14583786D01*
X11289262Y-14574262D01*
X11298786Y-14564738D01*
X11308309Y-14545690D01*
X11432119Y-14459976D02*
X11451167Y-14459976D01*
X11470214Y-14469500D01*
X11479738Y-14479024D01*
X11489262Y-14498071D01*
X11498786Y-14536167D01*
X11498786Y-14583786D01*
X11489262Y-14621881D01*
X11479738Y-14640928D01*
X11470214Y-14650452D01*
X11451167Y-14659976D01*
X11432119Y-14659976D01*
X11413071Y-14650452D01*
X11403548Y-14640928D01*
X11394024Y-14621881D01*
X11384500Y-14583786D01*
X11384500Y-14536167D01*
X11394024Y-14498071D01*
X11403548Y-14479024D01*
X11413071Y-14469500D01*
X11432119Y-14459976D01*
X11574976Y-14459976D02*
X11574976Y-14498071D01*
X11651167Y-14459976D02*
X11651167Y-14498071D01*
X11946405Y-14736167D02*
X11936881Y-14726643D01*
X11917833Y-14698071D01*
X11908309Y-14679024D01*
X11898786Y-14650452D01*
X11889262Y-14602833D01*
X11889262Y-14564738D01*
X11898786Y-14517119D01*
X11908309Y-14488548D01*
X11917833Y-14469500D01*
X11936881Y-14440928D01*
X11946405Y-14431405D01*
X12108309Y-14526643D02*
X12108309Y-14659976D01*
X12060690Y-14450452D02*
X12013071Y-14593309D01*
X12136881Y-14593309D01*
X12365452Y-14659976D02*
X12365452Y-14459976D01*
X12451167Y-14659976D02*
X12451167Y-14555214D01*
X12441643Y-14536167D01*
X12422595Y-14526643D01*
X12394024Y-14526643D01*
X12374976Y-14536167D01*
X12365452Y-14545690D01*
X12574976Y-14659976D02*
X12555928Y-14650452D01*
X12546405Y-14640928D01*
X12536881Y-14621881D01*
X12536881Y-14564738D01*
X12546405Y-14545690D01*
X12555928Y-14536167D01*
X12574976Y-14526643D01*
X12603548Y-14526643D01*
X12622595Y-14536167D01*
X12632119Y-14545690D01*
X12641643Y-14564738D01*
X12641643Y-14621881D01*
X12632119Y-14640928D01*
X12622595Y-14650452D01*
X12603548Y-14659976D01*
X12574976Y-14659976D01*
X12755928Y-14659976D02*
X12736881Y-14650452D01*
X12727357Y-14631405D01*
X12727357Y-14459976D01*
X12908309Y-14650452D02*
X12889262Y-14659976D01*
X12851167Y-14659976D01*
X12832119Y-14650452D01*
X12822595Y-14631405D01*
X12822595Y-14555214D01*
X12832119Y-14536167D01*
X12851167Y-14526643D01*
X12889262Y-14526643D01*
X12908309Y-14536167D01*
X12917833Y-14555214D01*
X12917833Y-14574262D01*
X12822595Y-14593309D01*
X12994024Y-14650452D02*
X13013071Y-14659976D01*
X13051167Y-14659976D01*
X13070214Y-14650452D01*
X13079738Y-14631405D01*
X13079738Y-14621881D01*
X13070214Y-14602833D01*
X13051167Y-14593309D01*
X13022595Y-14593309D01*
X13003548Y-14583786D01*
X12994024Y-14564738D01*
X12994024Y-14555214D01*
X13003548Y-14536167D01*
X13022595Y-14526643D01*
X13051167Y-14526643D01*
X13070214Y-14536167D01*
X13146405Y-14736167D02*
X13155928Y-14726643D01*
X13174976Y-14698071D01*
X13184500Y-14679024D01*
X13194024Y-14650452D01*
X13203548Y-14602833D01*
X13203548Y-14564738D01*
X13194024Y-14517119D01*
X13184500Y-14488548D01*
X13174976Y-14469500D01*
X13155928Y-14440928D01*
X13146405Y-14431405D01*
D17*
X8244500Y-14768500D02*
X8374500Y-14898500D01*
X8374500Y-14768500D02*
X8244500Y-14898500D01*
X8374500Y-14833500D02*
G75*
G03*
X8374500Y-14833500I-65000J0D01*
G01*
D11*
X8736881Y-14923976D02*
X8622595Y-14923976D01*
X8679738Y-14923976D02*
X8679738Y-14723976D01*
X8660690Y-14752548D01*
X8641643Y-14771595D01*
X8622595Y-14781119D01*
X8822595Y-14904928D02*
X8832119Y-14914452D01*
X8822595Y-14923976D01*
X8813071Y-14914452D01*
X8822595Y-14904928D01*
X8822595Y-14923976D01*
X8898786Y-14723976D02*
X9022595Y-14723976D01*
X8955929Y-14800167D01*
X8984500Y-14800167D01*
X9003548Y-14809690D01*
X9013071Y-14819214D01*
X9022595Y-14838262D01*
X9022595Y-14885881D01*
X9013071Y-14904928D01*
X9003548Y-14914452D01*
X8984500Y-14923976D01*
X8927357Y-14923976D01*
X8908310Y-14914452D01*
X8898786Y-14904928D01*
X9146405Y-14723976D02*
X9165452Y-14723976D01*
X9184500Y-14733500D01*
X9194024Y-14743024D01*
X9203548Y-14762071D01*
X9213071Y-14800167D01*
X9213071Y-14847786D01*
X9203548Y-14885881D01*
X9194024Y-14904928D01*
X9184500Y-14914452D01*
X9165452Y-14923976D01*
X9146405Y-14923976D01*
X9127357Y-14914452D01*
X9117833Y-14904928D01*
X9108310Y-14885881D01*
X9098786Y-14847786D01*
X9098786Y-14800167D01*
X9108310Y-14762071D01*
X9117833Y-14743024D01*
X9127357Y-14733500D01*
X9146405Y-14723976D01*
X9336881Y-14723976D02*
X9355929Y-14723976D01*
X9374976Y-14733500D01*
X9384500Y-14743024D01*
X9394024Y-14762071D01*
X9403548Y-14800167D01*
X9403548Y-14847786D01*
X9394024Y-14885881D01*
X9384500Y-14904928D01*
X9374976Y-14914452D01*
X9355929Y-14923976D01*
X9336881Y-14923976D01*
X9317833Y-14914452D01*
X9308310Y-14904928D01*
X9298786Y-14885881D01*
X9289262Y-14847786D01*
X9289262Y-14800167D01*
X9298786Y-14762071D01*
X9308310Y-14743024D01*
X9317833Y-14733500D01*
X9336881Y-14723976D01*
X9489262Y-14923976D02*
X9489262Y-14790643D01*
X9489262Y-14809690D02*
X9498786Y-14800167D01*
X9517833Y-14790643D01*
X9546405Y-14790643D01*
X9565452Y-14800167D01*
X9574976Y-14819214D01*
X9574976Y-14923976D01*
X9574976Y-14819214D02*
X9584500Y-14800167D01*
X9603548Y-14790643D01*
X9632119Y-14790643D01*
X9651167Y-14800167D01*
X9660690Y-14819214D01*
X9660690Y-14923976D01*
X9755929Y-14923976D02*
X9755929Y-14790643D01*
X9755929Y-14809690D02*
X9765452Y-14800167D01*
X9784500Y-14790643D01*
X9813071Y-14790643D01*
X9832119Y-14800167D01*
X9841643Y-14819214D01*
X9841643Y-14923976D01*
X9841643Y-14819214D02*
X9851167Y-14800167D01*
X9870214Y-14790643D01*
X9898786Y-14790643D01*
X9917833Y-14800167D01*
X9927357Y-14819214D01*
X9927357Y-14923976D01*
X10317833Y-14714452D02*
X10146405Y-14971595D01*
X10574976Y-14723976D02*
X10594024Y-14723976D01*
X10613071Y-14733500D01*
X10622595Y-14743024D01*
X10632119Y-14762071D01*
X10641643Y-14800167D01*
X10641643Y-14847786D01*
X10632119Y-14885881D01*
X10622595Y-14904928D01*
X10613071Y-14914452D01*
X10594024Y-14923976D01*
X10574976Y-14923976D01*
X10555929Y-14914452D01*
X10546405Y-14904928D01*
X10536881Y-14885881D01*
X10527357Y-14847786D01*
X10527357Y-14800167D01*
X10536881Y-14762071D01*
X10546405Y-14743024D01*
X10555929Y-14733500D01*
X10574976Y-14723976D01*
X10727357Y-14904928D02*
X10736881Y-14914452D01*
X10727357Y-14923976D01*
X10717833Y-14914452D01*
X10727357Y-14904928D01*
X10727357Y-14923976D01*
X10860690Y-14723976D02*
X10879738Y-14723976D01*
X10898786Y-14733500D01*
X10908310Y-14743024D01*
X10917833Y-14762071D01*
X10927357Y-14800167D01*
X10927357Y-14847786D01*
X10917833Y-14885881D01*
X10908310Y-14904928D01*
X10898786Y-14914452D01*
X10879738Y-14923976D01*
X10860690Y-14923976D01*
X10841643Y-14914452D01*
X10832119Y-14904928D01*
X10822595Y-14885881D01*
X10813071Y-14847786D01*
X10813071Y-14800167D01*
X10822595Y-14762071D01*
X10832119Y-14743024D01*
X10841643Y-14733500D01*
X10860690Y-14723976D01*
X11108310Y-14723976D02*
X11013071Y-14723976D01*
X11003548Y-14819214D01*
X11013071Y-14809690D01*
X11032119Y-14800167D01*
X11079738Y-14800167D01*
X11098786Y-14809690D01*
X11108310Y-14819214D01*
X11117833Y-14838262D01*
X11117833Y-14885881D01*
X11108310Y-14904928D01*
X11098786Y-14914452D01*
X11079738Y-14923976D01*
X11032119Y-14923976D01*
X11013071Y-14914452D01*
X11003548Y-14904928D01*
X11308309Y-14923976D02*
X11194024Y-14923976D01*
X11251167Y-14923976D02*
X11251167Y-14723976D01*
X11232119Y-14752548D01*
X11213071Y-14771595D01*
X11194024Y-14781119D01*
X11384500Y-14743024D02*
X11394024Y-14733500D01*
X11413071Y-14723976D01*
X11460690Y-14723976D01*
X11479738Y-14733500D01*
X11489262Y-14743024D01*
X11498786Y-14762071D01*
X11498786Y-14781119D01*
X11489262Y-14809690D01*
X11374976Y-14923976D01*
X11498786Y-14923976D01*
X11574976Y-14723976D02*
X11574976Y-14762071D01*
X11651167Y-14723976D02*
X11651167Y-14762071D01*
X11946405Y-15000167D02*
X11936881Y-14990643D01*
X11917833Y-14962071D01*
X11908309Y-14943024D01*
X11898786Y-14914452D01*
X11889262Y-14866833D01*
X11889262Y-14828738D01*
X11898786Y-14781119D01*
X11908309Y-14752548D01*
X11917833Y-14733500D01*
X11936881Y-14704928D01*
X11946405Y-14695405D01*
X12108309Y-14790643D02*
X12108309Y-14923976D01*
X12060690Y-14714452D02*
X12013071Y-14857309D01*
X12136881Y-14857309D01*
X12365452Y-14923976D02*
X12365452Y-14723976D01*
X12451167Y-14923976D02*
X12451167Y-14819214D01*
X12441643Y-14800167D01*
X12422595Y-14790643D01*
X12394024Y-14790643D01*
X12374976Y-14800167D01*
X12365452Y-14809690D01*
X12574976Y-14923976D02*
X12555928Y-14914452D01*
X12546405Y-14904928D01*
X12536881Y-14885881D01*
X12536881Y-14828738D01*
X12546405Y-14809690D01*
X12555928Y-14800167D01*
X12574976Y-14790643D01*
X12603548Y-14790643D01*
X12622595Y-14800167D01*
X12632119Y-14809690D01*
X12641643Y-14828738D01*
X12641643Y-14885881D01*
X12632119Y-14904928D01*
X12622595Y-14914452D01*
X12603548Y-14923976D01*
X12574976Y-14923976D01*
X12755928Y-14923976D02*
X12736881Y-14914452D01*
X12727357Y-14895405D01*
X12727357Y-14723976D01*
X12908309Y-14914452D02*
X12889262Y-14923976D01*
X12851167Y-14923976D01*
X12832119Y-14914452D01*
X12822595Y-14895405D01*
X12822595Y-14819214D01*
X12832119Y-14800167D01*
X12851167Y-14790643D01*
X12889262Y-14790643D01*
X12908309Y-14800167D01*
X12917833Y-14819214D01*
X12917833Y-14838262D01*
X12822595Y-14857309D01*
X12994024Y-14914452D02*
X13013071Y-14923976D01*
X13051167Y-14923976D01*
X13070214Y-14914452D01*
X13079738Y-14895405D01*
X13079738Y-14885881D01*
X13070214Y-14866833D01*
X13051167Y-14857309D01*
X13022595Y-14857309D01*
X13003548Y-14847786D01*
X12994024Y-14828738D01*
X12994024Y-14819214D01*
X13003548Y-14800167D01*
X13022595Y-14790643D01*
X13051167Y-14790643D01*
X13070214Y-14800167D01*
X13146405Y-15000167D02*
X13155928Y-14990643D01*
X13174976Y-14962071D01*
X13184500Y-14943024D01*
X13194024Y-14914452D01*
X13203548Y-14866833D01*
X13203548Y-14828738D01*
X13194024Y-14781119D01*
X13184500Y-14752548D01*
X13174976Y-14733500D01*
X13155928Y-14704928D01*
X13146405Y-14695405D01*
D18*
X8214500Y-15017500D02*
X8374500Y-15177500D01*
X8374500Y-15017500D02*
X8214500Y-15177500D01*
X8294500Y-15017500D02*
X8294500Y-15177500D01*
X8214500Y-15097500D02*
X8374500Y-15097500D01*
D11*
X8736881Y-15187976D02*
X8622595Y-15187976D01*
X8679738Y-15187976D02*
X8679738Y-14987976D01*
X8660690Y-15016548D01*
X8641643Y-15035595D01*
X8622595Y-15045119D01*
X8822595Y-15168928D02*
X8832119Y-15178452D01*
X8822595Y-15187976D01*
X8813071Y-15178452D01*
X8822595Y-15168928D01*
X8822595Y-15187976D01*
X9003548Y-14987976D02*
X8965452Y-14987976D01*
X8946405Y-14997500D01*
X8936881Y-15007024D01*
X8917833Y-15035595D01*
X8908310Y-15073690D01*
X8908310Y-15149881D01*
X8917833Y-15168928D01*
X8927357Y-15178452D01*
X8946405Y-15187976D01*
X8984500Y-15187976D01*
X9003548Y-15178452D01*
X9013071Y-15168928D01*
X9022595Y-15149881D01*
X9022595Y-15102262D01*
X9013071Y-15083214D01*
X9003548Y-15073690D01*
X8984500Y-15064167D01*
X8946405Y-15064167D01*
X8927357Y-15073690D01*
X8917833Y-15083214D01*
X8908310Y-15102262D01*
X9146405Y-14987976D02*
X9165452Y-14987976D01*
X9184500Y-14997500D01*
X9194024Y-15007024D01*
X9203548Y-15026071D01*
X9213071Y-15064167D01*
X9213071Y-15111786D01*
X9203548Y-15149881D01*
X9194024Y-15168928D01*
X9184500Y-15178452D01*
X9165452Y-15187976D01*
X9146405Y-15187976D01*
X9127357Y-15178452D01*
X9117833Y-15168928D01*
X9108310Y-15149881D01*
X9098786Y-15111786D01*
X9098786Y-15064167D01*
X9108310Y-15026071D01*
X9117833Y-15007024D01*
X9127357Y-14997500D01*
X9146405Y-14987976D01*
X9336881Y-14987976D02*
X9355929Y-14987976D01*
X9374976Y-14997500D01*
X9384500Y-15007024D01*
X9394024Y-15026071D01*
X9403548Y-15064167D01*
X9403548Y-15111786D01*
X9394024Y-15149881D01*
X9384500Y-15168928D01*
X9374976Y-15178452D01*
X9355929Y-15187976D01*
X9336881Y-15187976D01*
X9317833Y-15178452D01*
X9308310Y-15168928D01*
X9298786Y-15149881D01*
X9289262Y-15111786D01*
X9289262Y-15064167D01*
X9298786Y-15026071D01*
X9308310Y-15007024D01*
X9317833Y-14997500D01*
X9336881Y-14987976D01*
X9489262Y-15187976D02*
X9489262Y-15054643D01*
X9489262Y-15073690D02*
X9498786Y-15064167D01*
X9517833Y-15054643D01*
X9546405Y-15054643D01*
X9565452Y-15064167D01*
X9574976Y-15083214D01*
X9574976Y-15187976D01*
X9574976Y-15083214D02*
X9584500Y-15064167D01*
X9603548Y-15054643D01*
X9632119Y-15054643D01*
X9651167Y-15064167D01*
X9660690Y-15083214D01*
X9660690Y-15187976D01*
X9755929Y-15187976D02*
X9755929Y-15054643D01*
X9755929Y-15073690D02*
X9765452Y-15064167D01*
X9784500Y-15054643D01*
X9813071Y-15054643D01*
X9832119Y-15064167D01*
X9841643Y-15083214D01*
X9841643Y-15187976D01*
X9841643Y-15083214D02*
X9851167Y-15064167D01*
X9870214Y-15054643D01*
X9898786Y-15054643D01*
X9917833Y-15064167D01*
X9927357Y-15083214D01*
X9927357Y-15187976D01*
X10317833Y-14978452D02*
X10146405Y-15235595D01*
X10574976Y-14987976D02*
X10594024Y-14987976D01*
X10613071Y-14997500D01*
X10622595Y-15007024D01*
X10632119Y-15026071D01*
X10641643Y-15064167D01*
X10641643Y-15111786D01*
X10632119Y-15149881D01*
X10622595Y-15168928D01*
X10613071Y-15178452D01*
X10594024Y-15187976D01*
X10574976Y-15187976D01*
X10555929Y-15178452D01*
X10546405Y-15168928D01*
X10536881Y-15149881D01*
X10527357Y-15111786D01*
X10527357Y-15064167D01*
X10536881Y-15026071D01*
X10546405Y-15007024D01*
X10555929Y-14997500D01*
X10574976Y-14987976D01*
X10727357Y-15168928D02*
X10736881Y-15178452D01*
X10727357Y-15187976D01*
X10717833Y-15178452D01*
X10727357Y-15168928D01*
X10727357Y-15187976D01*
X10860690Y-14987976D02*
X10879738Y-14987976D01*
X10898786Y-14997500D01*
X10908310Y-15007024D01*
X10917833Y-15026071D01*
X10927357Y-15064167D01*
X10927357Y-15111786D01*
X10917833Y-15149881D01*
X10908310Y-15168928D01*
X10898786Y-15178452D01*
X10879738Y-15187976D01*
X10860690Y-15187976D01*
X10841643Y-15178452D01*
X10832119Y-15168928D01*
X10822595Y-15149881D01*
X10813071Y-15111786D01*
X10813071Y-15064167D01*
X10822595Y-15026071D01*
X10832119Y-15007024D01*
X10841643Y-14997500D01*
X10860690Y-14987976D01*
X11098786Y-14987976D02*
X11060690Y-14987976D01*
X11041643Y-14997500D01*
X11032119Y-15007024D01*
X11013071Y-15035595D01*
X11003548Y-15073690D01*
X11003548Y-15149881D01*
X11013071Y-15168928D01*
X11022595Y-15178452D01*
X11041643Y-15187976D01*
X11079738Y-15187976D01*
X11098786Y-15178452D01*
X11108310Y-15168928D01*
X11117833Y-15149881D01*
X11117833Y-15102262D01*
X11108310Y-15083214D01*
X11098786Y-15073690D01*
X11079738Y-15064167D01*
X11041643Y-15064167D01*
X11022595Y-15073690D01*
X11013071Y-15083214D01*
X11003548Y-15102262D01*
X11184500Y-14987976D02*
X11308309Y-14987976D01*
X11241643Y-15064167D01*
X11270214Y-15064167D01*
X11289262Y-15073690D01*
X11298786Y-15083214D01*
X11308309Y-15102262D01*
X11308309Y-15149881D01*
X11298786Y-15168928D01*
X11289262Y-15178452D01*
X11270214Y-15187976D01*
X11213071Y-15187976D01*
X11194024Y-15178452D01*
X11184500Y-15168928D01*
X11432119Y-14987976D02*
X11451167Y-14987976D01*
X11470214Y-14997500D01*
X11479738Y-15007024D01*
X11489262Y-15026071D01*
X11498786Y-15064167D01*
X11498786Y-15111786D01*
X11489262Y-15149881D01*
X11479738Y-15168928D01*
X11470214Y-15178452D01*
X11451167Y-15187976D01*
X11432119Y-15187976D01*
X11413071Y-15178452D01*
X11403548Y-15168928D01*
X11394024Y-15149881D01*
X11384500Y-15111786D01*
X11384500Y-15064167D01*
X11394024Y-15026071D01*
X11403548Y-15007024D01*
X11413071Y-14997500D01*
X11432119Y-14987976D01*
X11574976Y-14987976D02*
X11574976Y-15026071D01*
X11651167Y-14987976D02*
X11651167Y-15026071D01*
X11946405Y-15264167D02*
X11936881Y-15254643D01*
X11917833Y-15226071D01*
X11908309Y-15207024D01*
X11898786Y-15178452D01*
X11889262Y-15130833D01*
X11889262Y-15092738D01*
X11898786Y-15045119D01*
X11908309Y-15016548D01*
X11917833Y-14997500D01*
X11936881Y-14968928D01*
X11946405Y-14959405D01*
X12127357Y-15187976D02*
X12013071Y-15187976D01*
X12070214Y-15187976D02*
X12070214Y-14987976D01*
X12051167Y-15016548D01*
X12032119Y-15035595D01*
X12013071Y-15045119D01*
X12298786Y-14987976D02*
X12260690Y-14987976D01*
X12241643Y-14997500D01*
X12232119Y-15007024D01*
X12213071Y-15035595D01*
X12203548Y-15073690D01*
X12203548Y-15149881D01*
X12213071Y-15168928D01*
X12222595Y-15178452D01*
X12241643Y-15187976D01*
X12279738Y-15187976D01*
X12298786Y-15178452D01*
X12308309Y-15168928D01*
X12317833Y-15149881D01*
X12317833Y-15102262D01*
X12308309Y-15083214D01*
X12298786Y-15073690D01*
X12279738Y-15064167D01*
X12241643Y-15064167D01*
X12222595Y-15073690D01*
X12213071Y-15083214D01*
X12203548Y-15102262D01*
X12555928Y-15187976D02*
X12555928Y-14987976D01*
X12641643Y-15187976D02*
X12641643Y-15083214D01*
X12632119Y-15064167D01*
X12613071Y-15054643D01*
X12584500Y-15054643D01*
X12565452Y-15064167D01*
X12555928Y-15073690D01*
X12765452Y-15187976D02*
X12746405Y-15178452D01*
X12736881Y-15168928D01*
X12727357Y-15149881D01*
X12727357Y-15092738D01*
X12736881Y-15073690D01*
X12746405Y-15064167D01*
X12765452Y-15054643D01*
X12794024Y-15054643D01*
X12813071Y-15064167D01*
X12822595Y-15073690D01*
X12832119Y-15092738D01*
X12832119Y-15149881D01*
X12822595Y-15168928D01*
X12813071Y-15178452D01*
X12794024Y-15187976D01*
X12765452Y-15187976D01*
X12946405Y-15187976D02*
X12927357Y-15178452D01*
X12917833Y-15159405D01*
X12917833Y-14987976D01*
X13098786Y-15178452D02*
X13079738Y-15187976D01*
X13041643Y-15187976D01*
X13022595Y-15178452D01*
X13013071Y-15159405D01*
X13013071Y-15083214D01*
X13022595Y-15064167D01*
X13041643Y-15054643D01*
X13079738Y-15054643D01*
X13098786Y-15064167D01*
X13108309Y-15083214D01*
X13108309Y-15102262D01*
X13013071Y-15121309D01*
X13184500Y-15178452D02*
X13203548Y-15187976D01*
X13241643Y-15187976D01*
X13260690Y-15178452D01*
X13270214Y-15159405D01*
X13270214Y-15149881D01*
X13260690Y-15130833D01*
X13241643Y-15121309D01*
X13213071Y-15121309D01*
X13194024Y-15111786D01*
X13184500Y-15092738D01*
X13184500Y-15083214D01*
X13194024Y-15064167D01*
X13213071Y-15054643D01*
X13241643Y-15054643D01*
X13260690Y-15064167D01*
X13336881Y-15264167D02*
X13346405Y-15254643D01*
X13365452Y-15226071D01*
X13374976Y-15207024D01*
X13384500Y-15178452D01*
X13394024Y-15130833D01*
X13394024Y-15092738D01*
X13384500Y-15045119D01*
X13374976Y-15016548D01*
X13365452Y-14997500D01*
X13346405Y-14968928D01*
X13336881Y-14959405D01*
X8174500Y-15277500D02*
X8374500Y-15477500D01*
X8374500Y-15277500D02*
X8174500Y-15477500D01*
X8345211Y-15448211D02*
X8345211Y-15306789D01*
X8203789Y-15306789D01*
X8203789Y-15448211D01*
X8345211Y-15448211D01*
X8622595Y-15287024D02*
X8632119Y-15277500D01*
X8651167Y-15267976D01*
X8698786Y-15267976D01*
X8717833Y-15277500D01*
X8727357Y-15287024D01*
X8736881Y-15306071D01*
X8736881Y-15325119D01*
X8727357Y-15353690D01*
X8613071Y-15467976D01*
X8736881Y-15467976D01*
X8822595Y-15448928D02*
X8832119Y-15458452D01*
X8822595Y-15467976D01*
X8813071Y-15458452D01*
X8822595Y-15448928D01*
X8822595Y-15467976D01*
X8908310Y-15287024D02*
X8917833Y-15277500D01*
X8936881Y-15267976D01*
X8984500Y-15267976D01*
X9003548Y-15277500D01*
X9013071Y-15287024D01*
X9022595Y-15306071D01*
X9022595Y-15325119D01*
X9013071Y-15353690D01*
X8898786Y-15467976D01*
X9022595Y-15467976D01*
X9146405Y-15267976D02*
X9165452Y-15267976D01*
X9184500Y-15277500D01*
X9194024Y-15287024D01*
X9203548Y-15306071D01*
X9213071Y-15344167D01*
X9213071Y-15391786D01*
X9203548Y-15429881D01*
X9194024Y-15448928D01*
X9184500Y-15458452D01*
X9165452Y-15467976D01*
X9146405Y-15467976D01*
X9127357Y-15458452D01*
X9117833Y-15448928D01*
X9108310Y-15429881D01*
X9098786Y-15391786D01*
X9098786Y-15344167D01*
X9108310Y-15306071D01*
X9117833Y-15287024D01*
X9127357Y-15277500D01*
X9146405Y-15267976D01*
X9336881Y-15267976D02*
X9355929Y-15267976D01*
X9374976Y-15277500D01*
X9384500Y-15287024D01*
X9394024Y-15306071D01*
X9403548Y-15344167D01*
X9403548Y-15391786D01*
X9394024Y-15429881D01*
X9384500Y-15448928D01*
X9374976Y-15458452D01*
X9355929Y-15467976D01*
X9336881Y-15467976D01*
X9317833Y-15458452D01*
X9308310Y-15448928D01*
X9298786Y-15429881D01*
X9289262Y-15391786D01*
X9289262Y-15344167D01*
X9298786Y-15306071D01*
X9308310Y-15287024D01*
X9317833Y-15277500D01*
X9336881Y-15267976D01*
X9489262Y-15467976D02*
X9489262Y-15334643D01*
X9489262Y-15353690D02*
X9498786Y-15344167D01*
X9517833Y-15334643D01*
X9546405Y-15334643D01*
X9565452Y-15344167D01*
X9574976Y-15363214D01*
X9574976Y-15467976D01*
X9574976Y-15363214D02*
X9584500Y-15344167D01*
X9603548Y-15334643D01*
X9632119Y-15334643D01*
X9651167Y-15344167D01*
X9660690Y-15363214D01*
X9660690Y-15467976D01*
X9755929Y-15467976D02*
X9755929Y-15334643D01*
X9755929Y-15353690D02*
X9765452Y-15344167D01*
X9784500Y-15334643D01*
X9813071Y-15334643D01*
X9832119Y-15344167D01*
X9841643Y-15363214D01*
X9841643Y-15467976D01*
X9841643Y-15363214D02*
X9851167Y-15344167D01*
X9870214Y-15334643D01*
X9898786Y-15334643D01*
X9917833Y-15344167D01*
X9927357Y-15363214D01*
X9927357Y-15467976D01*
X10317833Y-15258452D02*
X10146405Y-15515595D01*
X10574976Y-15267976D02*
X10594024Y-15267976D01*
X10613071Y-15277500D01*
X10622595Y-15287024D01*
X10632119Y-15306071D01*
X10641643Y-15344167D01*
X10641643Y-15391786D01*
X10632119Y-15429881D01*
X10622595Y-15448928D01*
X10613071Y-15458452D01*
X10594024Y-15467976D01*
X10574976Y-15467976D01*
X10555929Y-15458452D01*
X10546405Y-15448928D01*
X10536881Y-15429881D01*
X10527357Y-15391786D01*
X10527357Y-15344167D01*
X10536881Y-15306071D01*
X10546405Y-15287024D01*
X10555929Y-15277500D01*
X10574976Y-15267976D01*
X10727357Y-15448928D02*
X10736881Y-15458452D01*
X10727357Y-15467976D01*
X10717833Y-15458452D01*
X10727357Y-15448928D01*
X10727357Y-15467976D01*
X10860690Y-15267976D02*
X10879738Y-15267976D01*
X10898786Y-15277500D01*
X10908310Y-15287024D01*
X10917833Y-15306071D01*
X10927357Y-15344167D01*
X10927357Y-15391786D01*
X10917833Y-15429881D01*
X10908310Y-15448928D01*
X10898786Y-15458452D01*
X10879738Y-15467976D01*
X10860690Y-15467976D01*
X10841643Y-15458452D01*
X10832119Y-15448928D01*
X10822595Y-15429881D01*
X10813071Y-15391786D01*
X10813071Y-15344167D01*
X10822595Y-15306071D01*
X10832119Y-15287024D01*
X10841643Y-15277500D01*
X10860690Y-15267976D01*
X11041643Y-15353690D02*
X11022595Y-15344167D01*
X11013071Y-15334643D01*
X11003548Y-15315595D01*
X11003548Y-15306071D01*
X11013071Y-15287024D01*
X11022595Y-15277500D01*
X11041643Y-15267976D01*
X11079738Y-15267976D01*
X11098786Y-15277500D01*
X11108310Y-15287024D01*
X11117833Y-15306071D01*
X11117833Y-15315595D01*
X11108310Y-15334643D01*
X11098786Y-15344167D01*
X11079738Y-15353690D01*
X11041643Y-15353690D01*
X11022595Y-15363214D01*
X11013071Y-15372738D01*
X11003548Y-15391786D01*
X11003548Y-15429881D01*
X11013071Y-15448928D01*
X11022595Y-15458452D01*
X11041643Y-15467976D01*
X11079738Y-15467976D01*
X11098786Y-15458452D01*
X11108310Y-15448928D01*
X11117833Y-15429881D01*
X11117833Y-15391786D01*
X11108310Y-15372738D01*
X11098786Y-15363214D01*
X11079738Y-15353690D01*
X11289262Y-15267976D02*
X11251167Y-15267976D01*
X11232119Y-15277500D01*
X11222595Y-15287024D01*
X11203548Y-15315595D01*
X11194024Y-15353690D01*
X11194024Y-15429881D01*
X11203548Y-15448928D01*
X11213071Y-15458452D01*
X11232119Y-15467976D01*
X11270214Y-15467976D01*
X11289262Y-15458452D01*
X11298786Y-15448928D01*
X11308309Y-15429881D01*
X11308309Y-15382262D01*
X11298786Y-15363214D01*
X11289262Y-15353690D01*
X11270214Y-15344167D01*
X11232119Y-15344167D01*
X11213071Y-15353690D01*
X11203548Y-15363214D01*
X11194024Y-15382262D01*
X11479738Y-15267976D02*
X11441643Y-15267976D01*
X11422595Y-15277500D01*
X11413071Y-15287024D01*
X11394024Y-15315595D01*
X11384500Y-15353690D01*
X11384500Y-15429881D01*
X11394024Y-15448928D01*
X11403548Y-15458452D01*
X11422595Y-15467976D01*
X11460690Y-15467976D01*
X11479738Y-15458452D01*
X11489262Y-15448928D01*
X11498786Y-15429881D01*
X11498786Y-15382262D01*
X11489262Y-15363214D01*
X11479738Y-15353690D01*
X11460690Y-15344167D01*
X11422595Y-15344167D01*
X11403548Y-15353690D01*
X11394024Y-15363214D01*
X11384500Y-15382262D01*
X11574976Y-15267976D02*
X11574976Y-15306071D01*
X11651167Y-15267976D02*
X11651167Y-15306071D01*
X11946405Y-15544167D02*
X11936881Y-15534643D01*
X11917833Y-15506071D01*
X11908309Y-15487024D01*
X11898786Y-15458452D01*
X11889262Y-15410833D01*
X11889262Y-15372738D01*
X11898786Y-15325119D01*
X11908309Y-15296548D01*
X11917833Y-15277500D01*
X11936881Y-15248928D01*
X11946405Y-15239405D01*
X12108309Y-15334643D02*
X12108309Y-15467976D01*
X12060690Y-15258452D02*
X12013071Y-15401309D01*
X12136881Y-15401309D01*
X12365452Y-15467976D02*
X12365452Y-15267976D01*
X12451167Y-15467976D02*
X12451167Y-15363214D01*
X12441643Y-15344167D01*
X12422595Y-15334643D01*
X12394024Y-15334643D01*
X12374976Y-15344167D01*
X12365452Y-15353690D01*
X12574976Y-15467976D02*
X12555928Y-15458452D01*
X12546405Y-15448928D01*
X12536881Y-15429881D01*
X12536881Y-15372738D01*
X12546405Y-15353690D01*
X12555928Y-15344167D01*
X12574976Y-15334643D01*
X12603548Y-15334643D01*
X12622595Y-15344167D01*
X12632119Y-15353690D01*
X12641643Y-15372738D01*
X12641643Y-15429881D01*
X12632119Y-15448928D01*
X12622595Y-15458452D01*
X12603548Y-15467976D01*
X12574976Y-15467976D01*
X12755928Y-15467976D02*
X12736881Y-15458452D01*
X12727357Y-15439405D01*
X12727357Y-15267976D01*
X12908309Y-15458452D02*
X12889262Y-15467976D01*
X12851167Y-15467976D01*
X12832119Y-15458452D01*
X12822595Y-15439405D01*
X12822595Y-15363214D01*
X12832119Y-15344167D01*
X12851167Y-15334643D01*
X12889262Y-15334643D01*
X12908309Y-15344167D01*
X12917833Y-15363214D01*
X12917833Y-15382262D01*
X12822595Y-15401309D01*
X12994024Y-15458452D02*
X13013071Y-15467976D01*
X13051167Y-15467976D01*
X13070214Y-15458452D01*
X13079738Y-15439405D01*
X13079738Y-15429881D01*
X13070214Y-15410833D01*
X13051167Y-15401309D01*
X13022595Y-15401309D01*
X13003548Y-15391786D01*
X12994024Y-15372738D01*
X12994024Y-15363214D01*
X13003548Y-15344167D01*
X13022595Y-15334643D01*
X13051167Y-15334643D01*
X13070214Y-15344167D01*
X13146405Y-15544167D02*
X13155928Y-15534643D01*
X13174976Y-15506071D01*
X13184500Y-15487024D01*
X13194024Y-15458452D01*
X13203548Y-15410833D01*
X13203548Y-15372738D01*
X13194024Y-15325119D01*
X13184500Y-15296548D01*
X13174976Y-15277500D01*
X13155928Y-15248928D01*
X13146405Y-15239405D01*
M02*
